<svg width="81" height="81" viewBox="0 0 81 81" fill="none" xmlns="http://www.w3.org/2000/svg">
<circle cx="40.237" cy="40.237" r="40.237" fill="#212121"/>
<g clip-path="url(#clip0_353_193)">
<path d="M56.9748 57.9501H55.2961V33.5756C55.2961 32.441 54.373 31.5181 53.2386 31.5181H49.4864C48.3519 31.5181 47.4289 32.4411 47.4289 33.5756V57.9501H43.1663V44.6191C43.1663 43.4846 42.2434 42.5616 41.1089 42.5616H37.3567C36.2221 42.5616 35.2992 43.4847 35.2992 44.6191V57.9501H31.0366V51.0461C31.0366 49.9116 30.1136 48.9886 28.9791 48.9886H25.2269C24.0924 48.9886 23.1694 49.9116 23.1694 51.0461V57.9501H21.4001C20.9774 57.9501 20.6348 58.2928 20.6348 58.7155C20.6348 59.1382 20.9774 59.4809 21.4001 59.4809H56.9748C57.3975 59.4809 57.7401 59.1382 57.7401 58.7155C57.7401 58.2928 57.3975 57.9501 56.9748 57.9501ZM29.5057 57.9501H24.7001V51.0461C24.7001 50.7556 24.9363 50.5193 25.2268 50.5193H28.979C29.2695 50.5193 29.5057 50.7556 29.5057 51.0461V57.9501ZM41.6355 57.9501H36.8299V44.6191C36.8299 44.3287 37.0661 44.0924 37.3566 44.0924H41.1088C41.3992 44.0924 41.6355 44.3287 41.6355 44.6191V57.9501ZM53.7653 57.9501H48.9596V33.5756C48.9596 33.2851 49.1959 33.0488 49.4864 33.0488H53.2386C53.529 33.0488 53.7653 33.2851 53.7653 33.5756V57.9501Z" fill="white"/>
<path d="M55.294 21.0983C55.3047 20.8895 55.2312 20.6771 55.0717 20.5176C54.9122 20.3581 54.6998 20.2845 54.4909 20.2953C54.4786 20.2948 54.4664 20.2935 54.4539 20.2935H49.8234C49.4006 20.2935 49.058 20.6361 49.058 21.0588C49.058 21.4816 49.4006 21.8242 49.8234 21.8242H52.6826L45.1163 29.3906L42.2629 26.5373C42.1194 26.3938 41.9247 26.3131 41.7217 26.3131C41.5188 26.3131 41.3241 26.3938 41.1806 26.5373L27.4214 40.2965C27.1225 40.5953 27.1225 41.08 27.4214 41.3789C27.5709 41.5283 27.7668 41.603 27.9626 41.603C28.1585 41.603 28.3544 41.5283 28.5038 41.3788L41.7217 28.1608L44.5751 31.0141C44.874 31.313 45.3586 31.313 45.6576 31.0141L53.7651 22.9067V25.4944C53.7651 25.9171 54.1077 26.2598 54.5304 26.2598C54.9531 26.2598 55.2958 25.9171 55.2958 25.4944V21.1354C55.2958 21.1229 55.2945 21.1107 55.294 21.0983Z" fill="white"/>
<path d="M25.3831 44.2737C25.8058 44.2737 26.1484 43.931 26.1484 43.5083C26.1484 43.0856 25.8058 42.7429 25.3831 42.7429C24.9603 42.7429 24.6177 43.0856 24.6177 43.5083C24.6177 43.931 24.9603 44.2737 25.3831 44.2737Z" fill="white"/>
</g>
<defs>
<clipPath id="clip0_353_193">
<rect width="39.1874" height="39.1874" fill="white" transform="translate(19.5938 20.2935)"/>
</clipPath>
</defs>
</svg>
