<svg width="81" height="81" viewBox="0 0 81 81" fill="none" xmlns="http://www.w3.org/2000/svg">
<circle cx="40.237" cy="40.237" r="40.237" fill="#212121"/>
<path fill-rule="evenodd" clip-rule="evenodd" d="M48.1259 28.7669H46.9412V31.1253H48.9453C50.4844 31.1253 50.4844 28.7669 48.9453 28.7669H48.1259ZM28.1176 53.315C19.5917 53.315 13.4131 45.1987 15.5945 37.0271C17.8644 28.5786 27.6304 24.825 34.9606 29.4091C34.7834 24.6368 37.2194 20.1634 41.427 17.7385C47.6055 14.162 55.5336 16.288 59.11 22.4665C62.6644 28.6229 60.5495 36.562 54.4042 40.1385C62.465 45.2541 62.454 57.3454 53.9391 62.2617C45.546 67.1004 34.9384 61.2651 34.5287 51.6098C32.5689 52.7281 30.3543 53.315 28.1176 53.315ZM36.3225 30.3835C39.146 32.6977 40.8844 36.2188 41.0284 39.8174C44.7045 37.7136 49.2886 37.5696 53.0754 39.3966C59.0879 36.4181 61.3578 28.9219 58.0028 23.1087C54.7806 17.5392 47.6388 15.6236 42.0692 18.8458C37.9723 21.2042 35.7356 25.7108 36.3225 30.3835ZM36.2561 50.425L35.8021 50.7793C35.5806 59.8368 45.4464 65.6831 53.2969 61.1544C58.8664 57.9323 60.782 50.7904 57.5709 45.2208C54.2048 39.3966 46.5536 37.6582 41.0062 41.3343C40.7405 44.933 39.0242 48.1883 36.2561 50.425ZM28.0844 28.7004C19.182 28.7004 13.5128 38.4333 17.9972 46.2063C21.6623 52.562 30.1772 53.9018 35.636 49.2734C39.8657 45.708 41.0616 39.4963 38.2048 34.5357C36.1232 30.9371 32.2477 28.7004 28.0844 28.7004ZM28.1176 50.5025C24.4969 50.5025 21.1308 48.5648 19.3259 45.4423C15.4062 38.6326 20.4332 30.2506 28.0844 30.2506C31.7052 30.2506 35.0713 32.1883 36.8761 35.3108C40.7958 42.1094 35.7578 50.5025 28.1176 50.5025ZM28.0844 31.524C21.4076 31.524 17.0007 38.8541 20.4332 44.8001C22.8803 49.0298 28.3391 50.4582 32.5246 48.0333C36.7543 45.5973 38.2048 40.1717 35.7689 35.953C34.1855 33.2181 31.2512 31.524 28.0844 31.524ZM52.9647 37.6028C52.3889 37.6028 48.4692 35.488 42.9661 37.2928C42.6118 37.4035 42.2353 37.1932 42.1467 36.8388C41.4713 34.1592 39.9986 31.6679 37.9834 29.7855C37.8505 29.6637 37.7841 29.5087 37.773 29.3426C37.5516 23.607 42.2021 18.8125 47.8824 18.8125C51.5031 18.8125 54.8692 20.7613 56.674 23.8838C59.3979 28.6118 57.9253 34.6022 53.308 37.5143C53.1972 37.5696 53.0865 37.6028 52.9647 37.6028ZM47.4616 35.2997C49.3218 35.2997 51.1377 35.6208 52.8872 36.252C56.7183 33.6499 57.9031 28.5565 55.5668 24.515C53.1308 20.3073 47.6609 18.8568 43.4754 21.2817C40.6962 22.8873 39.0131 25.8326 39.0464 29.0326C40.9841 30.9039 42.4346 33.2956 43.2097 35.8755C44.5827 35.488 46.0111 35.2997 47.4616 35.2997ZM47.4837 61.1765C42.2021 61.1765 37.773 57.0575 37.3633 51.8534C37.3522 51.643 37.4298 51.4548 37.5848 51.3219C40.1758 49.0741 41.892 45.9627 42.4125 42.5523C42.4457 42.353 42.5675 42.1869 42.7446 42.0873C47.5059 39.5849 53.5294 41.3011 56.2311 45.9849C60.1619 52.7835 55.1239 61.1765 47.4837 61.1765ZM38.6699 52.0637C39.3896 58.3752 46.4318 61.8631 51.8907 58.7184C56.1204 56.2714 57.5709 50.8568 55.1349 46.6271C52.8208 42.6298 47.7495 41.0907 43.6194 43.0727C43.0215 46.5385 41.272 49.7053 38.6699 52.0637ZM28.0955 47.8451C27.8851 47.8451 27.6858 47.7343 27.564 47.5572L22.6145 40.0388L22.5149 39.6845L22.6699 39.2748L27.6083 33.1406C27.8408 32.8416 28.3502 32.8416 28.5938 33.1406L33.5543 39.297C33.7204 39.5184 33.7315 39.8285 33.5654 40.061L28.6381 47.5572C28.5163 47.7343 28.317 47.8451 28.0955 47.8451ZM25.0394 41.4008L28.0955 46.0513L31.1626 41.4008C30.6422 41.6665 28.6934 42.7516 28.3059 42.8734C28.1398 42.9288 27.9626 42.9177 27.8076 42.8402L25.0394 41.4008ZM24.1426 39.4852L28.0955 41.5447L32.0595 39.4852L28.0955 34.5579L24.1426 39.4852ZM47.4727 56.3378C46.6754 56.3378 46.8415 55.3523 46.8415 54.8208C46.299 54.8208 45.2692 54.9869 45.2692 54.1786C45.2692 53.8243 45.5571 53.5364 45.9114 53.5364H48.4028V51.6873H45.9114C45.5571 51.6873 45.2692 51.3994 45.2692 51.0561C45.2692 47.0478 44.9259 47.2804 46.8415 47.2804C46.8415 46.7489 46.6754 45.7634 47.4727 45.7634C48.2699 45.7634 48.1149 46.7489 48.1149 47.2804C48.6464 47.2804 49.6761 47.1143 49.6761 47.9226C49.6761 48.2769 49.3993 48.5648 49.045 48.5648H46.5536V50.4139H49.045C49.3993 50.4139 49.6761 50.7018 49.6761 51.0561C49.6761 55.0534 50.0304 54.8208 48.1149 54.8208C48.1149 55.3523 48.2699 56.3378 47.4727 56.3378ZM46.299 32.3987C45.6125 32.3987 44.3945 32.6201 44.3945 31.7676C44.3945 31.0478 45.1695 31.1253 45.6678 31.1253V25.135C45.1695 25.135 44.3945 25.2015 44.3945 24.4928C44.3945 23.6402 45.6125 23.8506 46.299 23.8506H46.5758C46.5758 23.3634 46.4983 22.5883 47.2069 22.5883C47.9266 22.5883 47.8491 23.3634 47.8491 23.8506H48.1259C50.1633 23.8506 51.2595 26.198 50.0969 27.7703C52.2782 28.944 51.5253 32.3987 48.9453 32.3987H47.8491C47.8491 32.9191 47.982 33.8381 47.2069 33.8381C46.4429 33.8381 46.5758 32.9191 46.5758 32.3987H46.299ZM46.9412 27.4935H48.1481C49.6651 27.4714 49.654 25.135 48.1259 25.135H46.9412V27.4935Z" fill="white"/>
</svg>
