<svg width="88" height="88" viewBox="0 0 88 88" fill="none" xmlns="http://www.w3.org/2000/svg">
<circle cx="44" cy="44" r="44" fill="#6A40EC"/>
<path d="M50.2227 60.8862H53.3337C54.5241 60.8862 55.5788 60.1726 56.0226 59.0683L57.4184 55.5901" stroke="white" stroke-width="1.26863" stroke-miterlimit="10" stroke-linecap="round" stroke-linejoin="round"/>
<path d="M50.2227 63.4967H53.3337C55.5962 63.4967 57.6021 62.1409 58.4453 60.0411L60.2614 55.5168" stroke="white" stroke-width="1.26863" stroke-miterlimit="10" stroke-linecap="round" stroke-linejoin="round"/>
<path d="M56.0879 55.5043L59.1905 55.7048C60.2069 55.7705 61.1445 55.1586 61.4929 54.201L62.1238 52.4673" stroke="white" stroke-width="1.26863" stroke-miterlimit="10" stroke-linecap="round" stroke-linejoin="round"/>
<path d="M60.1016 44.4766L62.607 46.3183C63.4281 46.9215 63.7521 47.9932 63.4047 48.9499L63.1593 49.624" stroke="white" stroke-width="1.26863" stroke-miterlimit="10" stroke-linecap="round" stroke-linejoin="round"/>
<path d="M58.7777 42.0517C59.8627 42.4466 60.4222 43.6464 60.0273 44.7314L56.1946 55.2616C55.7997 56.3467 54.5999 56.9061 53.5149 56.5113C52.4299 56.1164 51.8704 54.9166 52.2653 53.8316L56.098 43.3013C56.4929 42.2162 57.6927 41.6568 58.7777 42.0517Z" stroke="white" stroke-width="1.26863" stroke-miterlimit="10" stroke-linecap="round" stroke-linejoin="round"/>
<path d="M47.6973 65.0334C49.2667 65.0334 50.5391 63.7611 50.5391 62.1916C50.5391 60.6222 49.2667 59.3499 47.6973 59.3499C46.1278 59.3499 44.8555 60.6222 44.8555 62.1916C44.8555 63.7611 46.1278 65.0334 47.6973 65.0334Z" stroke="white" stroke-width="1.26863" stroke-miterlimit="10" stroke-linecap="round" stroke-linejoin="round"/>
<path d="M32.442 56.4447H34.6139L40.2929 61.3035C41.0534 61.9543 42.227 61.4141 42.227 60.4134V56.4448H45.9839C48.2024 56.4448 50.0001 54.6463 50.0001 52.4286V41.5337C50.0001 39.3152 48.2024 37.5166 45.9839 37.5166H28.0161C25.7985 37.5166 24 39.3151 24 41.5337V52.4284C24 54.6461 25.7985 56.4446 28.0161 56.4446H29.4171" stroke="white" stroke-width="1.26863" stroke-miterlimit="10" stroke-linecap="round" stroke-linejoin="round"/>
<path d="M28.1807 44.6753H45.8207" stroke="white" stroke-width="1.26863" stroke-miterlimit="10" stroke-linecap="round" stroke-linejoin="round"/>
<path d="M28.1807 47.7712H45.8207" stroke="white" stroke-width="1.26863" stroke-miterlimit="10" stroke-linecap="round" stroke-linejoin="round"/>
<path d="M28.1807 50.8669H42.9351" stroke="white" stroke-width="1.26863" stroke-miterlimit="10" stroke-linecap="round" stroke-linejoin="round"/>
<path d="M26.8799 37.6802C27.6854 34.269 29.4225 31.1378 31.9634 28.5969C35.5734 24.9878 40.3726 23 45.4768 23C50.5811 23 55.3803 24.9878 58.9903 28.5969C62.5994 32.2069 64.5872 37.006 64.5872 42.1103C64.5872 44.2511 64.2285 46.3685 63.5345 48.3719" stroke="white" stroke-width="1.26863" stroke-miterlimit="10" stroke-linecap="round" stroke-linejoin="round"/>
<path d="M29.6094 37.5169C31.6041 30.6366 37.9632 25.5928 45.4771 25.5928C54.5846 25.5928 61.9947 33.0029 61.9947 42.1104C61.9947 43.2866 61.8693 44.455 61.6239 45.595" stroke="white" stroke-width="1.26863" stroke-miterlimit="10" stroke-linecap="round" stroke-linejoin="round"/>
</svg>
