<svg width="89" height="89" viewBox="0 0 89 89" fill="none" xmlns="http://www.w3.org/2000/svg">
<g filter="url(#filter0_d_2021_86)">
<circle cx="44.237" cy="40.237" r="40.237" fill="#212121"/>
</g>
<g clip-path="url(#clip0_2021_86)">
<path d="M52.6761 51.68C52.4696 50.9596 51.9952 50.3626 51.3398 49.9991C50.5659 49.5696 49.6573 49.5281 48.8467 49.885C48.4999 50.0376 48.3426 50.4426 48.4953 50.7893C48.6479 51.1362 49.0528 51.2934 49.3997 51.1406C49.8142 50.958 50.2786 50.9792 50.6742 51.1987C51.0091 51.3846 51.2516 51.6896 51.357 52.0577C51.4624 52.4257 51.4182 52.8125 51.2323 53.1474C50.6169 54.2573 50.6004 56.4377 50.6006 56.6784C50.6005 56.6988 50.5788 58.7383 49.8434 60.7283C48.9186 63.2317 47.3238 64.501 45.1038 64.501H39.5745C38.3975 64.501 35.4867 64.0776 33.8839 60.156C33.7407 59.8054 33.3405 59.6371 32.9894 59.7806C32.6387 59.9239 32.4705 60.3243 32.614 60.6751C33.9442 63.9299 36.5463 65.873 39.5746 65.873H45.1039C47.9289 65.873 50.0172 64.247 51.1427 61.1704C51.9526 58.9571 51.9722 56.7774 51.9726 56.6819C51.9722 55.894 52.0964 54.4183 52.4321 53.813C52.7959 53.1578 52.8824 52.4003 52.6761 51.68Z" fill="white"/>
<path d="M47.2723 41.5758C46.792 41.0956 46.1538 40.8311 45.4749 40.8311C44.0742 40.8311 42.9338 41.9706 42.9328 43.3719V47.6877C42.5823 47.5053 42.1841 47.402 41.7624 47.402C40.9073 47.402 40.1495 47.8264 39.6884 48.4754C39.2455 48.1012 38.6735 47.8753 38.0497 47.8753C36.7787 47.8753 35.7225 48.8129 35.5364 50.0328C35.1788 49.8407 34.7705 49.7316 34.337 49.7316C32.9352 49.7316 31.7947 50.8721 31.7947 52.2739V56.5554C31.7947 57.2396 31.8646 57.939 32.0022 58.6341C32.067 58.9608 32.3536 59.1869 32.6745 59.1869C32.7187 59.1869 32.7636 59.1825 32.8086 59.1736C33.1802 59.0999 33.4217 58.739 33.3482 58.3674C33.2278 57.7599 33.1668 57.1502 33.1668 56.5553V52.2738C33.1668 51.6285 33.6918 51.1035 34.3371 51.1035C34.9824 51.1035 35.5074 51.6286 35.5074 52.2738V53.2432C35.5074 53.6221 35.8145 53.9293 36.1934 53.9293C36.5724 53.9293 36.8795 53.6221 36.8795 53.2432V52.2738V50.4176C36.8795 49.7723 37.4045 49.2473 38.0498 49.2473C38.6951 49.2473 39.2201 49.7723 39.2201 50.4176V52.4662C39.2201 52.8451 39.5272 53.1522 39.9061 53.1522C40.2851 53.1522 40.5922 52.8451 40.5922 52.4662V50.4176V49.9443C40.5922 49.2989 41.1172 48.774 41.7625 48.774C42.4079 48.774 42.9329 49.299 42.9329 49.9443V53.0706C42.9329 53.4494 43.24 53.7566 43.6189 53.7566C43.9979 53.7566 44.305 53.4494 44.305 53.0706V49.9443V43.3724C44.3054 42.7277 44.8304 42.203 45.4751 42.203C45.7875 42.203 46.0814 42.3248 46.3025 42.5458C46.5237 42.767 46.6454 43.0608 46.6454 43.3733V53.3316V56.6749C46.6454 57.0538 46.9525 57.361 47.3314 57.361C47.7104 57.361 48.0175 57.0538 48.0175 56.6749V53.3316V43.3734C48.0171 42.6945 47.7526 42.0561 47.2723 41.5758Z" fill="white"/>
<path d="M46.0002 36.5615C43.0017 36.5615 40.5621 39.0011 40.5621 41.9997C40.5621 43.0232 40.8483 44.0207 41.3894 44.8844C41.5908 45.2053 42.0139 45.3025 42.335 45.1014C42.656 44.9001 42.7532 44.4768 42.5521 44.1557C42.1478 43.5107 41.9341 42.7651 41.9341 41.9997C41.9341 39.7576 43.7581 37.9335 46.0002 37.9335C48.2422 37.9335 50.0663 39.7575 50.0663 41.9997C50.0662 43.1969 49.5418 44.3279 48.6278 45.1028C48.3387 45.3478 48.3031 45.7807 48.5481 46.0697C48.6837 46.2298 48.8771 46.3121 49.0717 46.3121C49.2285 46.3121 49.386 46.2586 49.515 46.1494C50.7373 45.1132 51.4383 43.6007 51.4383 41.9997C51.4382 39.0011 48.9986 36.5615 46.0002 36.5615Z" fill="white"/>
<path d="M46 20.127C43.0014 20.127 40.5619 22.5665 40.5619 25.565C40.5619 28.5636 43.0014 31.0032 46 31.0032C48.9985 31.0032 51.438 28.5636 51.438 25.565C51.438 22.5664 48.9985 20.127 46 20.127ZM46 29.6311C43.7579 29.6311 41.9339 27.8071 41.9339 25.5649C41.9339 23.3229 43.7578 21.4989 46 21.4989C48.242 21.4989 50.066 23.3229 50.066 25.5649C50.066 27.807 48.2421 29.6311 46 29.6311Z" fill="white"/>
<path d="M28.4382 20.127C25.4395 20.127 23 22.5665 23 25.565C23 28.5636 25.4395 31.0032 28.4382 31.0032C31.4367 31.0032 33.8762 28.5636 33.8762 25.565C33.8762 22.5664 31.4366 20.127 28.4382 20.127ZM28.4382 29.6311C26.1961 29.6311 24.372 27.8071 24.372 25.5649C24.372 23.3229 26.196 21.4989 28.4382 21.4989C30.6803 21.4989 32.5042 23.3229 32.5042 25.5649C32.5041 27.807 30.6802 29.6311 28.4382 29.6311Z" fill="white"/>
<path d="M63.562 20.127C60.5634 20.127 58.1239 22.5665 58.1239 25.565C58.1239 28.5636 60.5634 31.0032 63.562 31.0032C64.4182 31.0032 65.2715 30.7989 66.0297 30.4122C66.3672 30.24 66.5013 29.8268 66.3292 29.4894C66.1568 29.1518 65.7437 29.0178 65.4064 29.1899C64.8324 29.4827 64.2117 29.6312 63.562 29.6312C61.3199 29.6312 59.4959 27.8072 59.4959 25.565C59.4959 23.323 61.3198 21.499 63.562 21.499C65.804 21.499 67.628 23.323 67.628 25.565C67.628 26.4551 67.3459 27.3001 66.8122 28.0087C66.5843 28.3113 66.6448 28.7414 66.9475 28.9694C67.2502 29.1974 67.6804 29.1368 67.9082 28.8342C68.6225 27.8858 69 26.7554 69 25.565C69 22.5665 66.5605 20.127 63.562 20.127Z" fill="white"/>
<path d="M58.7603 29.9279C58.5055 29.6474 58.0716 29.6266 57.7912 29.8815L50.3235 36.6674C50.0432 36.9222 50.0224 37.3561 50.2772 37.6365C50.4125 37.7855 50.5984 37.8611 50.785 37.8611C50.9497 37.8611 51.1148 37.8022 51.2462 37.6829L58.7139 30.8969C58.9943 30.6421 59.0151 30.2082 58.7603 29.9279Z" fill="white"/>
<path d="M41.0574 36.7834L33.8101 29.7935C33.5374 29.5306 33.1031 29.5384 32.84 29.8111C32.5771 30.0837 32.585 30.518 32.8575 30.7811L40.1048 37.771C40.2379 37.8994 40.4095 37.9633 40.581 37.9633C40.7607 37.9633 40.9402 37.893 41.0748 37.7536C41.3378 37.4808 41.33 37.0464 41.0574 36.7834Z" fill="white"/>
<path d="M46 31.8655C45.6211 31.8655 45.314 32.1727 45.314 32.5515V35.1431C45.314 35.5219 45.6211 35.8291 46 35.8291C46.379 35.8291 46.6861 35.5219 46.6861 35.1431V32.5515C46.6861 32.1727 46.379 31.8655 46 31.8655Z" fill="white"/>
</g>
<defs>
<filter id="filter0_d_2021_86" x="0" y="0" width="88.474" height="88.4741" filterUnits="userSpaceOnUse" color-interpolation-filters="sRGB">
<feFlood flood-opacity="0" result="BackgroundImageFix"/>
<feColorMatrix in="SourceAlpha" type="matrix" values="0 0 0 0 0 0 0 0 0 0 0 0 0 0 0 0 0 0 127 0" result="hardAlpha"/>
<feOffset dy="4"/>
<feGaussianBlur stdDeviation="2"/>
<feComposite in2="hardAlpha" operator="out"/>
<feColorMatrix type="matrix" values="0 0 0 0 0 0 0 0 0 0 0 0 0 0 0 0 0 0 0.25 0"/>
<feBlend mode="normal" in2="BackgroundImageFix" result="effect1_dropShadow_2021_86"/>
<feBlend mode="normal" in="SourceGraphic" in2="effect1_dropShadow_2021_86" result="shape"/>
</filter>
<clipPath id="clip0_2021_86">
<rect width="46" height="46" fill="white" transform="translate(23 20)"/>
</clipPath>
</defs>
</svg>
