<svg width="33" height="32" viewBox="0 0 33 32" fill="none" xmlns="http://www.w3.org/2000/svg">
<path d="M4.86865 18.6569C4.86865 25.2992 10.2217 30.6131 16.8249 30.6131C23.4282 30.6131 28.7812 25.2992 28.7812 18.6569C28.7812 9.29428 21.4496 4.00478 18.2687 2.15047C17.8684 1.91711 17.6682 1.80043 17.447 1.82703C17.2697 1.84834 17.0725 1.96956 16.9736 2.11811C16.8499 2.30355 16.8641 2.54184 16.8925 3.01843C17.1532 7.39244 17.868 15.9999 13.4088 15.9999C10.5437 15.9999 10.0816 13.7155 10.0071 10.1048C9.99423 9.48198 9.98781 9.17058 9.81669 8.98546C9.67913 8.83665 9.43514 8.75004 9.23453 8.77883C8.985 8.81466 8.80223 9.03043 8.43669 9.462C6.92895 11.242 4.86865 14.445 4.86865 18.6569Z" fill="white"/>
</svg>
