<svg width="33" height="32" viewBox="0 0 33 32" fill="none" xmlns="http://www.w3.org/2000/svg">
<path d="M4.86865 18.6568C4.86865 25.2992 10.2217 30.6131 16.8249 30.6131C23.4282 30.6131 28.7812 25.2992 28.7812 18.6568C28.7812 9.29422 21.4496 4.00472 18.2687 2.15041C17.8684 1.91705 17.6682 1.80037 17.447 1.82697C17.2697 1.84828 17.0725 1.9695 16.9736 2.11805C16.8499 2.30349 16.8641 2.54178 16.8925 3.01837C17.1532 7.39238 17.868 15.9999 13.4088 15.9999C10.5437 15.9999 10.0816 13.7154 10.0071 10.1047C9.99423 9.48192 9.98781 9.17052 9.81669 8.9854C9.67913 8.83658 9.43514 8.74998 9.23453 8.77877C8.985 8.8146 8.80223 9.03037 8.43669 9.46194C6.92895 11.242 4.86865 14.4449 4.86865 18.6568Z" fill="#6A42E6"/>
</svg>
