<svg width="81" height="81" viewBox="0 0 81 81" fill="none" xmlns="http://www.w3.org/2000/svg">
<circle cx="40.237" cy="40.237" r="40.237" fill="#212121"/>
<path d="M48.8701 43.1823L45.8876 44.979C45.7367 44.3615 45.2684 43.8392 44.6157 43.6522L37.8724 41.68C37.4099 41.5447 36.9417 41.5972 36.5201 41.8309L32.7045 43.9482L32.5421 43.635C32.3445 43.2537 31.8729 43.1036 31.4908 43.3012L28.5509 44.8232C28.1688 45.0209 28.0195 45.4924 28.2172 45.8745L31.3489 51.9248C31.4875 52.1922 31.7606 52.3463 32.0427 52.3463C32.1632 52.3463 32.2854 52.3185 32.3994 52.2594L35.3393 50.7374C35.7214 50.5398 35.8707 50.0682 35.673 49.6861L35.4664 49.2867L36.0634 48.9333L41.9111 50.8227C42.1276 50.8924 42.3449 50.9277 42.559 50.9277C42.9239 50.9277 43.2798 50.8268 43.6119 50.6267L50.7603 46.3214C51.6254 45.8007 51.9051 44.6732 51.3843 43.808C50.862 42.942 49.7352 42.6616 48.8701 43.1823ZM32.1288 51.2893L29.1848 45.6023L31.7614 44.2681L34.7054 49.9551L32.1288 51.2893ZM50.2519 45.4768L43.1035 49.7821C42.8198 49.9526 42.5286 49.9862 42.2137 49.8846L36.316 47.9788C36.0757 47.9009 35.8239 47.9296 35.6074 48.0575L35.0137 48.4093L33.1563 44.8216L36.9966 42.6903C37.1909 42.582 37.3812 42.5607 37.5952 42.6239L44.3418 44.5969C44.7912 44.7256 45.0519 45.1955 44.9232 45.6441C44.7952 46.091 44.3245 46.3518 43.8735 46.2247L39.8979 45.1053C39.6363 45.0315 39.3649 45.184 39.2911 45.4456C39.2173 45.7072 39.3698 45.9787 39.6314 46.0525L43.607 47.1718C43.7726 47.2186 43.9399 47.2407 44.1048 47.2407C44.8026 47.2407 45.4529 46.8397 45.7596 46.2042L49.3785 44.0245C49.7787 43.7834 50.3002 43.913 50.5413 44.3132C50.7816 44.7142 50.652 45.2357 50.2519 45.4768ZM43.5824 42.6534C47.394 42.6534 50.4946 39.5528 50.4946 35.7412C50.4946 31.9296 47.394 28.829 43.5824 28.829C39.7708 28.829 36.6702 31.9296 36.6702 35.7412C36.6702 39.5528 39.7708 42.6534 43.5824 42.6534ZM43.5824 29.8131C46.8511 29.8131 49.5105 32.4725 49.5105 35.7412C49.5105 39.0099 46.8511 41.6693 43.5824 41.6693C40.3137 41.6693 37.6543 39.0099 37.6543 35.7412C37.6543 32.4725 40.3137 29.8131 43.5824 29.8131ZM44.6722 37.3222C44.6722 36.5407 44.3032 36.4202 43.4676 36.2201C42.6877 36.0331 41.5085 35.751 41.5085 34.161C41.5085 33.1859 42.1834 32.3667 43.0904 32.1453V31.7238C43.0904 31.4523 43.311 31.2317 43.5824 31.2317C43.8538 31.2317 44.0744 31.4523 44.0744 31.7238V32.1453C44.9814 32.3667 45.6563 33.1859 45.6563 34.1601C45.6563 34.4316 45.4357 34.6522 45.1643 34.6522C44.8928 34.6522 44.6722 34.4316 44.6722 34.1601C44.6722 33.559 44.1835 33.0703 43.5824 33.0703C42.9813 33.0703 42.4926 33.559 42.4926 34.1601C42.4926 34.9425 42.8616 35.0638 43.6972 35.2631C44.4771 35.4501 45.6563 35.7322 45.6563 37.3222C45.6563 38.2965 44.9814 39.1165 44.0744 39.3379V39.7594C44.0744 40.0309 43.8538 40.2515 43.5824 40.2515C43.311 40.2515 43.0904 40.0309 43.0904 39.7594V39.3379C42.1834 39.1165 41.5085 38.2973 41.5085 37.3239C41.5085 37.0525 41.7291 36.8319 42.0005 36.8319C42.272 36.8319 42.4926 37.0525 42.4926 37.3239C42.4926 37.925 42.9813 38.4137 43.5824 38.4137C44.1835 38.4129 44.6722 37.9233 44.6722 37.3222ZM52.5062 28.3017C52.3799 28.3017 52.2544 28.2533 52.1585 28.1574C51.9666 27.9655 51.9666 27.6539 52.1585 27.4612L57.7545 21.8652L54.4644 21.8078C54.193 21.8028 53.9765 21.579 53.9814 21.3075C53.9863 21.0361 54.2135 20.8204 54.4817 20.8245L58.9304 20.9032C59.1953 20.9082 59.4093 21.1214 59.4134 21.3863L59.4921 25.835C59.4971 26.1064 59.2806 26.3311 59.0091 26.3352C59.0059 26.3352 59.0034 26.3352 59.0001 26.3352C58.7328 26.3352 58.513 26.1204 58.5081 25.8522L58.4499 22.5622L52.8539 28.1582C52.7587 28.2542 52.6325 28.3017 52.5062 28.3017ZM59.6504 55.1821L59.5717 59.6308C59.5668 59.8957 59.3536 60.1097 59.0887 60.1138L54.6399 60.1926C54.6366 60.1926 54.6342 60.1926 54.6309 60.1926C54.3636 60.1926 54.1438 59.9777 54.1389 59.7096C54.134 59.4381 54.3504 59.2134 54.6219 59.2093L57.9119 59.1511L52.3159 53.5551C52.124 53.3632 52.124 53.0516 52.3159 52.8589C52.5078 52.667 52.8194 52.667 53.0113 52.8589L58.6073 58.4549L58.6655 55.1648C58.6705 54.8934 58.8943 54.6777 59.1658 54.6818C59.4388 54.6859 59.6553 54.9098 59.6504 55.1821ZM27.6161 53.0155C27.808 53.2074 27.808 53.519 27.6161 53.7117L22.0201 59.3077L25.3101 59.366C25.5815 59.3709 25.798 59.5947 25.7931 59.8662C25.7882 60.1352 25.5692 60.3492 25.3011 60.3492C25.2978 60.3492 25.2953 60.3492 25.292 60.3492L20.8433 60.2705C20.5784 60.2655 20.3644 60.0523 20.3603 59.7875L20.2816 55.3387C20.2766 55.0673 20.4931 54.8426 20.7646 54.8385C21.0344 54.8352 21.2607 55.05 21.2648 55.3215L21.323 58.6115L26.919 53.0155C27.1117 52.8236 27.4242 52.8236 27.6161 53.0155ZM20.6071 26.4927C20.3357 26.4878 20.1192 26.2639 20.1241 25.9925L20.2028 21.5437C20.2078 21.2788 20.421 21.0648 20.6858 21.0607L25.1346 20.982C25.4019 20.977 25.6307 21.1935 25.6348 21.465C25.6397 21.7364 25.4233 21.9611 25.1518 21.9652L21.8618 22.0234L27.4578 27.6194C27.6497 27.8113 27.6497 28.1229 27.4578 28.3157C27.3618 28.4116 27.2356 28.46 27.1101 28.46C26.9846 28.46 26.8583 28.4116 26.7624 28.3157L21.1664 22.7188L21.1082 26.0097C21.1032 26.2787 20.8843 26.4927 20.6161 26.4927C20.6137 26.4927 20.6104 26.4927 20.6071 26.4927Z" fill="white"/>
</svg>
