<svg width="81" height="81" viewBox="0 0 81 81" fill="none" xmlns="http://www.w3.org/2000/svg">
<circle cx="40.237" cy="40.237" r="40.237" fill="#212121"/>
<path d="M58.6801 36.2828C62.1151 29.4646 55.0476 21.9087 48.0004 24.8413C47.494 22.8654 46.284 21.1421 44.5972 19.995C42.9105 18.8479 40.8632 18.3558 38.8394 18.611C36.8156 18.8662 34.9545 19.8513 33.6055 21.3813C32.2564 22.9113 31.5121 24.881 31.5122 26.9208C31.5122 27.0484 31.5151 27.1759 31.521 27.3033C30.3286 26.8476 29.0327 26.7333 27.779 26.9733C26.5252 27.2132 25.3631 27.7979 24.4232 28.6617C23.4833 29.5255 22.8028 30.6341 22.458 31.8632C22.1133 33.0924 22.118 34.3932 22.4716 35.6198C15.2543 38.2179 16.9723 48.8484 24.7027 48.9641H29.0939V57.2932C29.0951 58.3368 29.5102 59.3373 30.2482 60.0752C30.9861 60.8131 31.9866 61.2282 33.0302 61.2294H46.7458C47.7894 61.2282 48.7899 60.8131 49.5278 60.0752C50.2657 59.3373 50.6808 58.3368 50.6821 57.2932V48.9641C50.6881 48.9609 55.076 48.9682 55.0813 48.9625C56.5665 48.9516 58.0081 48.4592 59.1897 47.5594C60.3714 46.6596 61.2294 45.4008 61.6349 43.972C62.0404 42.5432 61.9716 41.0214 61.4389 39.635C60.9061 38.2486 59.9381 37.0724 58.6801 36.2828ZM49.1076 57.2932C49.1069 57.9194 48.8578 58.5197 48.4151 58.9625C47.9723 59.4052 47.372 59.6543 46.7458 59.655H33.0302C32.404 59.6543 31.8037 59.4052 31.3609 58.9625C30.9181 58.5197 30.6691 57.9194 30.6684 57.2932V48.5812C30.6716 47.9559 30.9215 47.357 31.3637 46.9148C31.8059 46.4726 32.4048 46.2227 33.0302 46.2195H46.7458C47.3712 46.2227 47.97 46.4726 48.4122 46.9148C48.8544 47.357 49.1043 47.9559 49.1075 48.5812L49.1076 57.2932ZM45.3551 44.645H34.4209V41.6794C34.4209 40.2294 34.9969 38.8388 36.0222 37.8136C37.0475 36.7883 38.438 36.2123 39.888 36.2123C41.338 36.2123 42.7285 36.7883 43.7538 37.8136C44.7791 38.8388 45.3551 40.2294 45.3551 41.6794V44.645ZM55.0727 47.3884C55.0716 47.3939 50.4808 47.3869 50.4777 47.3896C50.2349 46.6276 49.7648 45.9581 49.1306 45.4709C48.4964 44.9836 47.7284 44.7019 46.9296 44.6636V41.6794C46.9296 39.8118 46.1877 38.0208 44.8672 36.7002C43.5466 35.3797 41.7556 34.6378 39.888 34.6378C38.0205 34.6378 36.2294 35.3797 34.9089 36.7002C33.5883 38.0208 32.8464 39.8118 32.8464 41.6794V44.6636C32.0476 44.7019 31.2796 44.9836 30.6454 45.4709C30.0112 45.9581 29.5412 46.6276 29.2983 47.3896H24.7026C23.392 47.3892 22.1282 46.9018 21.1567 46.0221C20.1852 45.1423 19.5752 43.933 19.4452 42.6288C19.3151 41.3247 19.6743 40.0187 20.4529 38.9644C21.2316 37.9102 22.3742 37.1828 23.659 36.9236C23.7744 36.9001 23.8831 36.851 23.977 36.7799C24.071 36.7088 24.1478 36.6175 24.2017 36.5127C24.2556 36.408 24.2854 36.2925 24.2887 36.1747C24.292 36.0569 24.2689 35.9399 24.2209 35.8323C23.9263 35.1634 23.7762 34.4398 23.7804 33.7089C23.7819 32.3081 24.3391 30.9651 25.3296 29.9746C26.3201 28.9841 27.6631 28.4269 29.0639 28.4253C30.396 28.4741 31.9814 28.7685 32.2097 30.2728C32.2952 30.4606 32.4509 30.6073 32.6435 30.6814C32.836 30.7555 33.05 30.7511 33.2393 30.6691C33.4286 30.5871 33.5782 30.434 33.6558 30.2429C33.7334 30.0517 33.7329 29.8377 33.6544 29.6469C33.2632 28.7525 33.0691 27.7844 33.0853 26.8083C33.1016 25.8322 33.3277 24.8711 33.7484 23.9902C34.1691 23.1093 34.7745 22.3293 35.5235 21.7031C36.2724 21.077 37.1474 20.6194 38.0889 20.3615C39.0305 20.1036 40.0165 20.0513 40.98 20.2083C41.9435 20.3654 42.8619 20.7279 43.6728 21.2715C44.4837 21.815 45.1681 22.5267 45.6796 23.3582C46.191 24.1897 46.5174 25.1216 46.6366 26.0905C46.6534 26.2184 46.7011 26.3403 46.7757 26.4455C46.8503 26.5507 46.9494 26.6361 47.0645 26.6943C47.1796 26.7525 47.3072 26.7817 47.4361 26.7794C47.5651 26.7771 47.6915 26.7433 47.8044 26.681C54.875 22.8322 61.6075 32.0237 55.7891 37.5879C55.6407 37.731 55.5544 37.9266 55.5486 38.1327C55.5428 38.3387 55.618 38.5388 55.7581 38.6901C55.8982 38.8413 56.092 38.9316 56.2978 38.9415C56.5037 38.9515 56.7053 38.8803 56.8594 38.7433C57.223 38.3989 57.5551 38.0226 57.8515 37.6188C58.8193 38.2286 59.5634 39.1356 59.9725 40.2038C60.3816 41.272 60.4335 42.444 60.1206 43.5443C59.8076 44.6445 59.1466 45.6137 58.2366 46.3067C57.3266 46.9997 56.2165 47.3793 55.0727 47.3884Z" fill="white"/>
<path d="M39.8877 49.6482C39.0205 49.6559 38.1914 50.0058 37.5809 50.6218C36.9704 51.2377 36.6279 52.0699 36.6279 52.9371C36.6279 53.8044 36.9705 54.6365 37.581 55.2525C38.1915 55.8684 39.0206 56.2183 39.8878 56.226C40.755 56.2183 41.584 55.8684 42.1945 55.2524C42.805 54.6365 43.1475 53.8043 43.1475 52.9371C43.1475 52.0698 42.805 51.2377 42.1945 50.6217C41.584 50.0058 40.7549 49.6559 39.8877 49.6482ZM39.8877 54.6515C39.4364 54.6464 39.0053 54.4635 38.6879 54.1425C38.3706 53.8216 38.1926 53.3884 38.1926 52.9371C38.1926 52.4857 38.3706 52.0526 38.688 51.7316C39.0053 51.4107 39.4364 51.2278 39.8877 51.2227C40.3391 51.2278 40.7702 51.4107 41.0875 51.7317C41.4048 52.0526 41.5828 52.4858 41.5828 52.9371C41.5828 53.3885 41.4048 53.8216 41.0875 54.1426C40.7701 54.4635 40.339 54.6464 39.8877 54.6515Z" fill="white"/>
</svg>
