<svg width="32" height="32" viewBox="0 0 32 32" fill="none" xmlns="http://www.w3.org/2000/svg">
<path opacity="0.12" d="M5.32178 14.6132H26.5773V22.8497C26.5773 25.0818 26.5773 26.1977 26.1429 27.0503C25.7609 27.8002 25.1512 28.4099 24.4013 28.7919C23.5487 29.2264 22.4328 29.2264 20.2007 29.2264H11.6984C9.4664 29.2264 8.35038 29.2264 7.49785 28.7919C6.74795 28.4099 6.13826 27.8002 5.75616 27.0503C5.32178 26.1977 5.32178 25.0818 5.32178 22.8497V14.6132Z" fill="#7B5FFF"/>
<path d="M26.5771 14.6131V22.8496C26.5771 25.0817 26.5771 26.1977 26.1426 27.0503C25.7606 27.8002 25.1509 28.4098 24.401 28.7919C23.5484 29.2263 22.4325 29.2263 20.2004 29.2263H11.6982C9.46612 29.2263 8.35009 29.2263 7.49757 28.7919C6.74766 28.4098 6.13797 27.8002 5.75588 27.0503C5.3215 26.1977 5.3215 25.0817 5.3215 22.8496V14.6131M26.5771 14.6131H5.3215M26.5771 14.6131C28.0445 14.6131 29.234 13.4236 29.234 11.9562C29.234 10.4888 28.0445 9.29922 26.5771 9.29922H5.3215C3.8541 9.29922 2.66455 10.4888 2.66455 11.9562C2.66455 13.4236 3.8541 14.6131 5.3215 14.6131M15.9493 9.29922V29.2263M15.9493 9.29922H20.5989C22.4331 9.29922 23.9201 7.81228 23.9201 5.97804C23.9201 4.14381 22.4331 2.65686 20.5989 2.65686H20.4924C18.9786 2.65686 17.6441 3.64977 17.2092 5.09967L15.9493 9.29922ZM15.9493 9.29922H11.2996C9.46539 9.29922 7.97844 7.81228 7.97844 5.97804C7.97844 4.14381 9.46539 2.65686 11.2996 2.65686H11.4062C12.9199 2.65686 14.2544 3.64977 14.6894 5.09967L15.9493 9.29922Z" stroke="#6A40EC" stroke-width="1.99271" stroke-linecap="round" stroke-linejoin="round"/>
</svg>
