<svg width="81" height="81" viewBox="0 0 81 81" fill="none" xmlns="http://www.w3.org/2000/svg">
<circle cx="40.237" cy="40.237" r="40.237" fill="#212121"/>
<path d="M58.2 33.177H61.3703" stroke="white" stroke-width="1.25977" stroke-miterlimit="10" stroke-linecap="round" stroke-linejoin="round"/>
<path d="M26.7156 55.7399H30.862V49.1379H19.6299V55.7399H23.7762" stroke="white" stroke-width="1.25977" stroke-miterlimit="10" stroke-linecap="round" stroke-linejoin="round"/>
<path d="M19.6299 49.138L22.7984 45.9695" stroke="white" stroke-width="1.25977" stroke-miterlimit="10" stroke-linecap="round" stroke-linejoin="round"/>
<path d="M30.8621 55.7396L34.0712 52.5305" stroke="white" stroke-width="1.25977" stroke-miterlimit="10" stroke-linecap="round" stroke-linejoin="round"/>
<path d="M34.177 45.823L30.8621 49.1379" stroke="white" stroke-width="1.25977" stroke-miterlimit="10" stroke-linecap="round" stroke-linejoin="round"/>
<path d="M45.4091 49.1379H34.177V55.7396H45.4091V49.1379Z" stroke="white" stroke-width="1.25977" stroke-miterlimit="10" stroke-linecap="round" stroke-linejoin="round"/>
<path d="M34.177 49.138L37.4398 45.8752" stroke="white" stroke-width="1.25977" stroke-miterlimit="10" stroke-linecap="round" stroke-linejoin="round"/>
<path d="M45.4092 49.138L61.3704 33.1768V39.7788L52.0263 49.1237" stroke="white" stroke-width="1.25977" stroke-miterlimit="10" stroke-linecap="round" stroke-linejoin="round"/>
<path d="M49.9477 51.2024L45.4092 55.7401" stroke="white" stroke-width="1.25977" stroke-miterlimit="10" stroke-linecap="round" stroke-linejoin="round"/>
<path d="M30.862 39.2212H19.6299V45.8232H30.862V39.2212Z" stroke="white" stroke-width="1.25977" stroke-miterlimit="10" stroke-linecap="round" stroke-linejoin="round"/>
<path d="M25.6938 33.1576L35.5914 23.26H46.8235" stroke="white" stroke-width="1.25977" stroke-miterlimit="10" stroke-linecap="round" stroke-linejoin="round"/>
<path d="M23.6149 35.2361L19.6299 39.2211" stroke="white" stroke-width="1.25977" stroke-miterlimit="10" stroke-linecap="round" stroke-linejoin="round"/>
<path d="M30.8621 45.8231L34.0712 42.614" stroke="white" stroke-width="1.25977" stroke-miterlimit="10" stroke-linecap="round" stroke-linejoin="round"/>
<path d="M30.8621 39.2212L46.8233 23.26V26.2792" stroke="white" stroke-width="1.25977" stroke-miterlimit="10" stroke-linecap="round" stroke-linejoin="round"/>
<path d="M45.4091 39.2214H34.177V45.8231H45.4091V39.2214Z" stroke="white" stroke-width="1.25977" stroke-miterlimit="10" stroke-linecap="round" stroke-linejoin="round"/>
<path d="M43.2544 30.1442L50.1378 23.26H61.3698" stroke="white" stroke-width="1.25977" stroke-miterlimit="10" stroke-linecap="round" stroke-linejoin="round"/>
<path d="M41.176 32.2227L34.1768 39.2211" stroke="white" stroke-width="1.25977" stroke-miterlimit="10" stroke-linecap="round" stroke-linejoin="round"/>
<path d="M45.4092 45.8231L61.3703 29.8619V23.2603L45.4092 39.2214" stroke="white" stroke-width="1.25977" stroke-miterlimit="10" stroke-linecap="round" stroke-linejoin="round"/>
<path d="M19.7808 45.6725L26.1681 39.2852" stroke="white" stroke-width="1.25977" stroke-miterlimit="10" stroke-linecap="round" stroke-linejoin="round"/>
<path d="M19.8662 55.5033L26.1679 49.2017" stroke="white" stroke-width="1.25977" stroke-miterlimit="10" stroke-linecap="round" stroke-linejoin="round"/>
<path d="M34.3704 45.6297L40.7144 39.2856" stroke="white" stroke-width="1.25977" stroke-miterlimit="10" stroke-linecap="round" stroke-linejoin="round"/>
<path d="M34.4133 55.5035L40.7249 49.1919" stroke="white" stroke-width="1.25977" stroke-miterlimit="10" stroke-linecap="round" stroke-linejoin="round"/>
</svg>
