<svg width="19" height="19" viewBox="0 0 19 19" fill="none" xmlns="http://www.w3.org/2000/svg">
<path d="M9.50331 5.61126C7.34382 5.61126 5.60196 7.35312 5.60196 9.51261C5.60196 11.6721 7.34382 13.414 9.50331 13.414C11.6628 13.414 13.4047 11.6721 13.4047 9.51261C13.4047 7.35312 11.6628 5.61126 9.50331 5.61126ZM9.50331 12.049C8.10779 12.049 6.96692 10.9115 6.96692 9.51261C6.96692 8.11369 8.10439 6.97622 9.50331 6.97622C10.9022 6.97622 12.0397 8.11369 12.0397 9.51261C12.0397 10.9115 10.8988 12.049 9.50331 12.049ZM14.4742 5.45167C14.4742 5.95759 14.0668 6.36165 13.5643 6.36165C13.0583 6.36165 12.6543 5.9542 12.6543 5.45167C12.6543 4.94915 13.0617 4.5417 13.5643 4.5417C14.0668 4.5417 14.4742 4.94915 14.4742 5.45167ZM17.0582 6.37523C17.0004 5.15627 16.722 4.07652 15.829 3.18692C14.9394 2.29732 13.8597 2.01889 12.6407 1.95777C11.3844 1.88647 7.61885 1.88647 6.36254 1.95777C5.14697 2.0155 4.06722 2.29392 3.17423 3.18353C2.28123 4.07313 2.0062 5.15288 1.94508 6.37184C1.87378 7.62815 1.87378 11.3937 1.94508 12.65C2.0028 13.869 2.28123 14.9487 3.17423 15.8383C4.06722 16.7279 5.14358 17.0063 6.36254 17.0674C7.61885 17.1388 11.3844 17.1388 12.6407 17.0674C13.8597 17.0097 14.9394 16.7313 15.829 15.8383C16.7186 14.9487 16.997 13.869 17.0582 12.65C17.1295 11.3937 17.1295 7.63154 17.0582 6.37523ZM15.4351 13.998C15.1703 14.6635 14.6576 15.1762 13.9887 15.4444C12.987 15.8417 10.6102 15.75 9.50331 15.75C8.3964 15.75 6.0162 15.8383 5.01795 15.4444C4.35244 15.1796 3.83973 14.6669 3.57149 13.998C3.17423 12.9963 3.2659 10.6195 3.2659 9.51261C3.2659 8.4057 3.17762 6.0255 3.57149 5.02725C3.83634 4.36174 4.34905 3.84903 5.01795 3.58079C6.0196 3.18353 8.3964 3.2752 9.50331 3.2752C10.6102 3.2752 12.9904 3.18692 13.9887 3.58079C14.6542 3.84564 15.1669 4.35835 15.4351 5.02725C15.8324 6.0289 15.7407 8.4057 15.7407 9.51261C15.7407 10.6195 15.8324 12.9997 15.4351 13.998Z" fill="white"/>
</svg>
