<svg width="56" height="56" viewBox="0 0 56 56" fill="none" xmlns="http://www.w3.org/2000/svg">
<rect width="55.1552" height="55.1552" rx="27.5776" fill="#212121"/>
<path d="M27.5812 21.0574C23.9753 21.0574 21.0667 23.9659 21.0667 27.5719C21.0667 31.1778 23.9753 34.0864 27.5812 34.0864C31.1872 34.0864 34.0957 31.1778 34.0957 27.5719C34.0957 23.9659 31.1872 21.0574 27.5812 21.0574ZM27.5812 31.8072C25.251 31.8072 23.3459 29.9078 23.3459 27.5719C23.3459 25.236 25.2453 23.3366 27.5812 23.3366C29.9171 23.3366 31.8165 25.236 31.8165 27.5719C31.8165 29.9078 29.9115 31.8072 27.5812 31.8072ZM35.8817 20.7909C35.8817 21.6357 35.2013 22.3104 34.3622 22.3104C33.5174 22.3104 32.8427 21.63 32.8427 20.7909C32.8427 19.9518 33.5231 19.2714 34.3622 19.2714C35.2013 19.2714 35.8817 19.9518 35.8817 20.7909ZM40.1964 22.3331C40.1 20.2976 39.6351 18.4946 38.1439 17.0092C36.6585 15.5237 34.8555 15.0588 32.82 14.9567C30.7222 14.8377 24.4345 14.8377 22.3367 14.9567C20.3069 15.0531 18.504 15.518 17.0128 17.0035C15.5217 18.489 15.0624 20.2919 14.9604 22.3274C14.8413 24.4252 14.8413 30.7129 14.9604 32.8107C15.0568 34.8461 15.5217 36.6491 17.0128 38.1346C18.504 39.6201 20.3013 40.085 22.3367 40.187C24.4345 40.3061 30.7222 40.3061 32.82 40.187C34.8555 40.0907 36.6585 39.6257 38.1439 38.1346C39.6294 36.6491 40.0943 34.8461 40.1964 32.8107C40.3154 30.7129 40.3154 24.4309 40.1964 22.3331ZM37.4862 35.0616C37.044 36.1729 36.1879 37.029 35.0709 37.4769C33.3984 38.1403 29.4295 37.9872 27.5812 37.9872C25.7329 37.9872 21.7584 38.1346 20.0915 37.4769C18.9802 37.0347 18.1241 36.1785 17.6762 35.0616C17.0128 33.389 17.1659 29.4202 17.1659 27.5719C17.1659 25.7236 17.0185 21.7491 17.6762 20.0822C18.1184 18.9709 18.9746 18.1148 20.0915 17.6669C21.7641 17.0035 25.7329 17.1566 27.5812 17.1566C29.4295 17.1566 33.404 17.0092 35.0709 17.6669C36.1822 18.1091 37.0383 18.9652 37.4862 20.0822C38.1496 21.7547 37.9965 25.7236 37.9965 27.5719C37.9965 29.4202 38.1496 33.3947 37.4862 35.0616Z" fill="white"/>
</svg>
