<svg width="81" height="81" viewBox="0 0 81 81" fill="none" xmlns="http://www.w3.org/2000/svg">
<circle cx="40.237" cy="40.237" r="40.237" fill="#212121"/>
<g clip-path="url(#clip0_2018_84)">
<path d="M40 64C37.6536 64 35.7447 62.0911 35.7447 59.7447C35.7447 57.55 37.4147 55.7381 39.5508 55.5129V47.718H33.9173L30.9058 50.7295C31.6819 51.8098 31.5846 53.3282 30.6139 54.2989C29.5353 55.3777 27.78 55.3778 26.7011 54.2989C25.6225 53.2201 25.6225 51.4648 26.7011 50.3861C27.6717 49.4154 29.1901 49.318 30.2706 50.0942L32.6467 47.7181H32.1254C31.1135 47.7181 30.2902 46.8948 30.2902 45.8829V45.4019C30.2902 45.1537 30.4914 44.9527 30.7394 44.9527H32.2159V41.4492H25.487C25.2619 43.5853 23.45 45.2553 21.2553 45.2553C18.9089 45.2553 17 43.3464 17 41C17 38.6536 18.9089 36.7447 21.2553 36.7447C23.45 36.7447 25.2619 38.4147 25.487 40.5508H32.2158V35.213C32.2158 34.8453 32.43 34.5268 32.7402 34.3756L30.2706 31.9059C29.1901 32.682 27.6717 32.5847 26.7011 31.614C25.6224 30.5353 25.6224 28.78 26.7011 27.7012C27.7799 26.6226 29.5353 26.6225 30.6139 27.7012C31.5846 28.6719 31.6819 30.1902 30.9058 31.2706L33.9172 34.282H39.5508V26.487C37.4147 26.2619 35.7447 24.45 35.7447 22.2553C35.7447 19.9089 37.6536 18 40 18C42.3464 18 44.2553 19.9089 44.2553 22.2553C44.2553 24.45 42.5853 26.2619 40.4492 26.487V34.2819H46.0828L49.0942 31.2706C48.3181 30.1902 48.4154 28.6718 49.3861 27.7011C50.4647 26.6225 52.2202 26.6224 53.2989 27.7011C54.3776 28.7799 54.3776 30.5352 53.2989 31.6139C52.3283 32.5846 50.8098 32.6819 49.7295 31.9058L47.3301 34.3052C47.744 34.3997 48.0539 34.7709 48.0539 35.213V40.5508H54.513C54.7381 38.4147 56.5501 36.7447 58.7448 36.7447C61.0911 36.7447 63 38.6536 63 41C63 43.3464 61.0911 45.2553 58.7447 45.2553C56.55 45.2553 54.7381 43.5853 54.5129 41.4492H48.0538V44.9527H49.2606C49.5087 44.9527 49.7098 45.1537 49.7098 45.4019V45.8829C49.7098 46.8948 48.8865 47.7181 47.8746 47.7181H47.3533L49.7294 50.0942C50.8096 49.3181 52.3281 49.4154 53.2988 50.386C54.3775 51.4648 54.3775 53.2201 53.2989 54.2989C53.2988 54.2989 53.2988 54.2989 53.2988 54.2989C52.2201 55.3776 50.4646 55.3776 49.386 54.2989C48.4154 53.3282 48.318 51.8099 49.0941 50.7295L46.0826 47.7181H40.4492V55.513C42.5853 55.7381 44.2553 57.5501 44.2553 59.7448C44.2553 62.0911 42.3464 64 40 64ZM39.9336 56.3884C38.1131 56.4239 36.6432 57.9159 36.6432 59.7446C36.6432 61.5957 38.149 63.1016 40 63.1016C41.8511 63.1016 43.3568 61.5957 43.3568 59.7447C43.3568 57.916 41.8869 56.4239 40.0664 56.3885C40.0231 56.395 39.9769 56.395 39.9336 56.3884ZM27.3365 53.6636C28.065 54.3919 29.2504 54.3919 29.9787 53.6636C30.7072 52.9351 30.7072 51.7497 29.9787 51.0213C29.2503 50.2929 28.0649 50.2931 27.3365 51.0213C26.6081 51.7497 26.6081 52.9351 27.3365 53.6636ZM51.3424 50.475C50.8639 50.475 50.3856 50.657 50.0213 51.0214C49.2929 51.7497 49.2929 52.9351 50.0214 53.6636C50.7497 54.3918 51.9352 54.392 52.6636 53.6635C53.3919 52.9351 53.3919 51.7497 52.6635 51.0213C52.2993 50.6571 51.8208 50.475 51.3424 50.475ZM31.1887 45.8511V45.8829C31.1887 46.3994 31.6089 46.8196 32.1254 46.8196H47.8747C48.3912 46.8196 48.8114 46.3994 48.8114 45.8829V45.8511H31.1887ZM33.1143 44.9527H47.1553V35.213C47.1553 35.195 47.1408 35.1804 47.1228 35.1804H46.2753C46.2709 35.1805 46.2665 35.1805 46.2622 35.1804H33.1469C33.1289 35.1804 33.1144 35.195 33.1144 35.213V44.9527H33.1143ZM55.3884 41.0664C55.4239 42.8869 56.9159 44.3568 58.7446 44.3568C60.5957 44.3568 62.1016 42.8511 62.1016 41C62.1016 39.149 60.5957 37.6432 58.7447 37.6432C56.916 37.6432 55.4239 39.1131 55.3885 40.9336C55.3918 40.9553 55.3935 40.9774 55.3935 41C55.3935 41.0226 55.3917 41.0447 55.3884 41.0664ZM21.2553 37.6432C19.4043 37.6432 17.8984 39.149 17.8984 41C17.8984 42.8511 19.4043 44.3568 21.2553 44.3568C23.0841 44.3568 24.576 42.8869 24.6115 41.0664C24.6082 41.0447 24.6066 41.0226 24.6066 41C24.6066 40.9774 24.6083 40.9553 24.6115 40.9336C24.5761 39.1131 23.0841 37.6432 21.2553 37.6432ZM28.6576 27.7902C28.1791 27.7902 27.7007 27.9723 27.3364 28.3365C26.608 29.065 26.608 30.2503 27.3364 30.9787C28.0649 31.7072 29.2503 31.7073 29.9786 30.9787C30.7071 30.2503 30.7071 29.065 29.9786 28.3365C29.6145 27.9723 29.1361 27.7902 28.6576 27.7902ZM51.3424 27.7902C50.864 27.7902 50.3856 27.9723 50.0213 28.3365C49.2929 29.065 49.2929 30.2503 50.0213 30.9787C50.7498 31.7072 51.9352 31.7073 52.6636 30.9787C53.3919 30.2503 53.3919 29.065 52.6636 28.3365C52.2992 27.9723 51.8208 27.7902 51.3424 27.7902ZM40 25.6066C40.0226 25.6066 40.0447 25.6083 40.0664 25.6115C41.8869 25.576 43.3568 24.0841 43.3568 22.2553C43.3568 20.4043 41.8511 18.8984 40 18.8984C38.149 18.8984 36.6432 20.4043 36.6432 22.2553C36.6432 24.0841 38.1131 25.576 39.9336 25.6115C39.9553 25.6083 39.9774 25.6066 40 25.6066ZM42.7403 42.7394C42.4922 42.7394 42.2911 42.5383 42.2911 42.2902V37.8429C42.2911 37.5948 42.4922 37.3937 42.7403 37.3937C42.9885 37.3937 43.1895 37.5948 43.1895 37.8429V42.2902C43.1895 42.5383 42.9885 42.7394 42.7403 42.7394ZM41.0034 42.7394C40.7552 42.7394 40.5542 42.5383 40.5542 42.2902V38.5616C40.5542 38.3136 40.7552 38.1124 41.0034 38.1124C41.2515 38.1124 41.4526 38.3136 41.4526 38.5616V42.2902C41.4526 42.5383 41.2515 42.7394 41.0034 42.7394ZM39.2663 42.7394C39.0183 42.7394 38.8171 42.5383 38.8171 42.2902V39.2804C38.8171 39.0323 39.0183 38.8312 39.2663 38.8312C39.5144 38.8312 39.7156 39.0323 39.7156 39.2804V42.2902C39.7156 42.5383 39.5145 42.7394 39.2663 42.7394ZM37.5294 42.7394C37.2813 42.7394 37.0802 42.5383 37.0802 42.2902V39.9991C37.0802 39.7511 37.2813 39.5499 37.5294 39.5499C37.7774 39.5499 37.9786 39.7511 37.9786 39.9991V42.2902C37.9786 42.5383 37.7774 42.7394 37.5294 42.7394Z" fill="white"/>
</g>
<defs>
<clipPath id="clip0_2018_84">
<rect width="46" height="46" fill="white" transform="translate(17 18)"/>
</clipPath>
</defs>
</svg>
