<svg width="88" height="88" viewBox="0 0 88 88" fill="none" xmlns="http://www.w3.org/2000/svg">
<circle cx="44" cy="44" r="44" fill="#6A40EC"/>
<path d="M53.2953 55.1399H34.7054C34.2164 55.1385 33.7479 54.9437 33.4022 54.598C33.0565 54.2523 32.8617 53.7838 32.8604 53.2949V34.7049C32.8617 34.2159 33.0565 33.7474 33.4022 33.4017C33.7479 33.056 34.2164 32.8612 34.7054 32.8599H53.2953C53.7843 32.8612 54.2528 33.056 54.5985 33.4017C54.9442 33.7474 55.139 34.2159 55.1404 34.7049V53.2949C55.139 53.7838 54.9442 54.2523 54.5985 54.598C54.2528 54.9437 53.7843 55.1385 53.2953 55.1399ZM34.7054 33.8599C34.4812 33.8599 34.2663 33.9489 34.1078 34.1074C33.9494 34.2658 33.8604 34.4808 33.8604 34.7049V53.2949C33.8604 53.519 33.9494 53.7339 34.1078 53.8924C34.2663 54.0508 34.4812 54.1399 34.7054 54.1399H53.2953C53.5195 54.1399 53.7344 54.0508 53.8929 53.8924C54.0513 53.7339 54.1404 53.519 54.1404 53.2949V34.7049C54.1404 34.4808 54.0513 34.2658 53.8929 34.1074C53.7344 33.9489 53.5195 33.8599 53.2953 33.8599H34.7054Z" fill="white"/>
<path d="M49.7047 51.03H38.2947C37.9433 51.03 37.6063 50.8904 37.3578 50.6419C37.1093 50.3934 36.9697 50.0564 36.9697 49.705V38.295C36.9697 37.9436 37.1093 37.6065 37.3578 37.3581C37.6063 37.1096 37.9433 36.97 38.2947 36.97H49.7047C50.0561 36.97 50.3932 37.1096 50.6416 37.3581C50.8901 37.6065 51.0297 37.9436 51.0297 38.295V49.705C51.0297 50.0564 50.8901 50.3934 50.6416 50.6419C50.3932 50.8904 50.0561 51.03 49.7047 51.03ZM38.2947 37.97C38.2085 37.97 38.1259 38.0042 38.0649 38.0652C38.004 38.1261 37.9697 38.2088 37.9697 38.295V49.705C37.9697 49.7912 38.004 49.8738 38.0649 49.9348C38.1259 49.9957 38.2085 50.03 38.2947 50.03H49.7047C49.7909 50.03 49.8736 49.9957 49.9345 49.9348C49.9955 49.8738 50.0297 49.7912 50.0297 49.705V38.295C50.0297 38.2088 49.9955 38.1261 49.9345 38.0652C49.8736 38.0042 49.7909 37.97 49.7047 37.97H38.2947Z" fill="white"/>
<path d="M41 33.86C40.8674 33.86 40.7402 33.8073 40.6464 33.7136C40.5527 33.6198 40.5 33.4926 40.5 33.36V24.77C40.5 24.6374 40.5527 24.5102 40.6464 24.4165C40.7402 24.3227 40.8674 24.27 41 24.27C41.1326 24.27 41.2598 24.3227 41.3536 24.4165C41.4473 24.5102 41.5 24.6374 41.5 24.77V33.36C41.5 33.4926 41.4473 33.6198 41.3536 33.7136C41.2598 33.8073 41.1326 33.86 41 33.86Z" fill="white"/>
<path d="M41.0002 25.27C40.578 25.27 40.1652 25.1448 39.8141 24.9102C39.463 24.6756 39.1893 24.3422 39.0278 23.952C38.8662 23.5619 38.8239 23.1326 38.9063 22.7185C38.9886 22.3043 39.192 21.9239 39.4906 21.6253C39.7891 21.3267 40.1696 21.1234 40.5837 21.041C40.9979 20.9586 41.4271 21.0009 41.8173 21.1625C42.2074 21.3241 42.5408 21.5978 42.7754 21.9489C43.01 22.3 43.1352 22.7127 43.1352 23.135C43.1339 23.7008 42.9086 24.2431 42.5085 24.6432C42.1083 25.0433 41.5661 25.2687 41.0002 25.27ZM41.0002 22C40.7758 22 40.5563 22.0666 40.3697 22.1913C40.183 22.316 40.0375 22.4933 39.9516 22.7007C39.8657 22.908 39.8432 23.1363 39.887 23.3564C39.9308 23.5766 40.0389 23.7788 40.1977 23.9376C40.3564 24.0963 40.5586 24.2044 40.7788 24.2482C40.999 24.292 41.2272 24.2695 41.4346 24.1836C41.642 24.0977 41.8192 23.9522 41.944 23.7656C42.0687 23.5789 42.1352 23.3595 42.1352 23.135C42.1352 22.834 42.0157 22.5453 41.8028 22.3324C41.5899 22.1196 41.3013 22 41.0002 22Z" fill="white"/>
<path d="M47.4648 33.86C47.3322 33.86 47.2051 33.8073 47.1113 33.7136C47.0175 33.6198 46.9648 33.4926 46.9648 33.36V27.27C46.9648 27.1374 47.0175 27.0102 47.1113 26.9165C47.2051 26.8227 47.3322 26.77 47.4648 26.77H54.1448C54.2775 26.77 54.4046 26.8227 54.4984 26.9165C54.5922 27.0102 54.6448 27.1374 54.6448 27.27C54.6448 27.4026 54.5922 27.5298 54.4984 27.6236C54.4046 27.7173 54.2775 27.77 54.1448 27.77H47.9648V33.36C47.9648 33.4926 47.9122 33.6198 47.8184 33.7136C47.7246 33.8073 47.5975 33.86 47.4648 33.86Z" fill="white"/>
<path d="M55.7795 29.405C55.3573 29.405 54.9445 29.2798 54.5934 29.0452C54.2423 28.8106 53.9686 28.4772 53.807 28.087C53.6455 27.6969 53.6032 27.2676 53.6856 26.8535C53.7679 26.4393 53.9713 26.0589 54.2699 25.7603C54.5684 25.4618 54.9489 25.2584 55.363 25.176C55.7772 25.0937 56.2064 25.1359 56.5966 25.2975C56.9867 25.4591 57.3201 25.7328 57.5547 26.0839C57.7893 26.435 57.9145 26.8477 57.9145 27.27C57.9145 27.8362 57.6896 28.3793 57.2892 28.7797C56.8888 29.1801 56.3458 29.405 55.7795 29.405ZM55.7795 26.135C55.555 26.135 55.3356 26.2016 55.149 26.3263C54.9623 26.451 54.8168 26.6283 54.7309 26.8357C54.645 27.0431 54.6225 27.2713 54.6663 27.4914C54.7101 27.7116 54.8182 27.9138 54.977 28.0726C55.1357 28.2313 55.3379 28.3394 55.5581 28.3832C55.7783 28.427 56.0065 28.4045 56.2139 28.3186C56.4213 28.2327 56.5985 28.0872 56.7232 27.9006C56.848 27.7139 56.9145 27.4945 56.9145 27.27C56.9145 26.969 56.795 26.6803 56.5821 26.4674C56.3692 26.2546 56.0806 26.135 55.7795 26.135Z" fill="white"/>
<path d="M63.2296 40.2051H54.6396C54.507 40.2051 54.3799 40.1524 54.2861 40.0586C54.1923 39.9649 54.1396 39.8377 54.1396 39.7051C54.1396 39.5725 54.1923 39.4453 54.2861 39.3515C54.3799 39.2578 54.507 39.2051 54.6396 39.2051H63.2296C63.3623 39.2051 63.4894 39.2578 63.5832 39.3515C63.677 39.4453 63.7296 39.5725 63.7296 39.7051C63.7296 39.8377 63.677 39.9649 63.5832 40.0586C63.4894 40.1524 63.3623 40.2051 63.2296 40.2051Z" fill="white"/>
<path d="M64.8655 41.8398C64.4432 41.8398 64.0304 41.7146 63.6793 41.48C63.3282 41.2454 63.0546 40.912 62.893 40.5219C62.7314 40.1317 62.6891 39.7025 62.7715 39.2883C62.8539 38.8742 63.0572 38.4937 63.3558 38.1952C63.6544 37.8966 64.0348 37.6932 64.449 37.6108C64.8631 37.5285 65.2924 37.5707 65.6825 37.7323C66.0726 37.8939 66.4061 38.1676 66.6407 38.5187C66.8753 38.8698 67.0005 39.2826 67.0005 39.7048C66.9991 40.2707 66.7738 40.8129 66.3737 41.213C65.9736 41.6131 65.4313 41.8385 64.8655 41.8398ZM64.8655 38.5698C64.641 38.5698 64.4215 38.6364 64.2349 38.7611C64.0482 38.8858 63.9028 39.0631 63.8169 39.2705C63.731 39.4779 63.7085 39.7061 63.7523 39.9263C63.7961 40.1464 63.9042 40.3487 64.0629 40.5074C64.2216 40.6661 64.4239 40.7742 64.644 40.818C64.8642 40.8618 65.0924 40.8393 65.2998 40.7534C65.5072 40.6675 65.6845 40.522 65.8092 40.3354C65.9339 40.1487 66.0005 39.9293 66.0005 39.7048C66.0005 39.5558 65.9711 39.4082 65.9141 39.2705C65.857 39.1328 65.7734 39.0077 65.668 38.9023C65.5626 38.7969 65.4375 38.7133 65.2998 38.6562C65.1621 38.5992 65.0145 38.5698 64.8655 38.5698Z" fill="white"/>
<path d="M60.7296 53.8499C60.597 53.8499 60.4699 53.7972 60.3761 53.7035C60.2823 53.6097 60.2296 53.4825 60.2296 53.3499V47.1699H54.6396C54.507 47.1699 54.3799 47.1172 54.2861 47.0235C54.1923 46.9297 54.1396 46.8025 54.1396 46.6699C54.1396 46.5373 54.1923 46.4101 54.2861 46.3164C54.3799 46.2226 54.507 46.1699 54.6396 46.1699H60.7296C60.8623 46.1699 60.9894 46.2226 61.0832 46.3164C61.177 46.4101 61.2296 46.5373 61.2296 46.6699V53.3499C61.2296 53.4825 61.177 53.6097 61.0832 53.7035C60.9894 53.7972 60.8623 53.8499 60.7296 53.8499Z" fill="white"/>
<path d="M60.7297 57.1201C60.3068 57.1201 59.8934 56.9945 59.542 56.7592C59.1906 56.524 58.9169 56.1896 58.7558 55.7986C58.5947 55.4076 58.5533 54.9776 58.6369 54.563C58.7205 54.1485 58.9253 53.7681 59.2254 53.4701C59.5255 53.1721 59.9073 52.97 60.3224 52.8893C60.7376 52.8086 61.1673 52.8531 61.5572 53.017C61.947 53.1808 62.2794 53.4568 62.5122 53.8099C62.745 54.163 62.8676 54.5772 62.8647 55.0001C62.8607 55.5637 62.634 56.1029 62.2341 56.5001C61.8341 56.8972 61.2933 57.1201 60.7297 57.1201ZM60.7297 53.8501C60.5058 53.8501 60.287 53.9163 60.1007 54.0404C59.9144 54.1645 59.7689 54.3408 59.6826 54.5474C59.5963 54.7539 59.5729 54.9813 59.6155 55.2011C59.6581 55.4208 59.7647 55.6231 59.922 55.7824C60.0792 55.9417 60.28 56.051 60.4992 56.0964C60.7184 56.1419 60.9461 56.1216 61.1537 56.0379C61.3614 55.9543 61.5396 55.8112 61.6661 55.6265C61.7926 55.4419 61.8617 55.2239 61.8647 55.0001C61.8667 54.8498 61.8388 54.7006 61.7826 54.5611C61.7265 54.4217 61.6432 54.2948 61.5376 54.1878C61.432 54.0808 61.3062 53.9959 61.1675 53.9379C61.0288 53.8799 60.88 53.8501 60.7297 53.8501Z" fill="white"/>
<path d="M33.3595 49H24.7695C24.6369 49 24.5097 48.9473 24.416 48.8536C24.3222 48.7598 24.2695 48.6326 24.2695 48.5C24.2695 48.3674 24.3222 48.2402 24.416 48.1464C24.5097 48.0527 24.6369 48 24.7695 48H33.3595C33.4921 48 33.6193 48.0527 33.7131 48.1464C33.8069 48.2402 33.8595 48.3674 33.8595 48.5C33.8595 48.6326 33.8069 48.7598 33.7131 48.8536C33.6193 48.9473 33.4921 49 33.3595 49Z" fill="white"/>
<path d="M23.1349 50.6201C22.712 50.6201 22.2987 50.4945 21.9473 50.2592C21.5958 50.024 21.3222 49.6896 21.1611 49.2986C20.9999 48.9076 20.9585 48.4776 21.0421 48.063C21.1257 47.6485 21.3306 47.2681 21.6307 46.9701C21.9307 46.6721 22.3126 46.47 22.7277 46.3893C23.1428 46.3086 23.5726 46.3531 23.9624 46.517C24.3523 46.6808 24.6847 46.9568 24.9175 47.3099C25.1502 47.663 25.2729 48.0772 25.2699 48.5001C25.2647 49.0633 25.0376 49.6018 24.6379 49.9986C24.2382 50.3955 23.6982 50.6188 23.1349 50.6201ZM23.1349 47.3501C22.9111 47.3501 22.6923 47.4163 22.506 47.5404C22.3197 47.6645 22.1742 47.8408 22.0879 48.0474C22.0015 48.2539 21.9782 48.4813 22.0208 48.7011C22.0634 48.9208 22.17 49.1231 22.3272 49.2824C22.4845 49.4417 22.6853 49.551 22.9045 49.5964C23.1236 49.6419 23.3514 49.6216 23.559 49.5379C23.7666 49.4543 23.9449 49.3112 24.0714 49.1265C24.1979 48.9419 24.267 48.7239 24.2699 48.5001C24.2719 48.3498 24.244 48.2006 24.1879 48.0611C24.1317 47.9217 24.0485 47.7948 23.9429 47.6878C23.8373 47.5808 23.7115 47.4959 23.5728 47.4379C23.4341 47.3799 23.2853 47.3501 23.1349 47.3501Z" fill="white"/>
<path d="M33.3595 41.9998H27.2695C27.1369 41.9998 27.0097 41.9472 26.916 41.8534C26.8222 41.7596 26.7695 41.6325 26.7695 41.4998V34.8398C26.7695 34.7072 26.8222 34.5801 26.916 34.4863C27.0097 34.3925 27.1369 34.3398 27.2695 34.3398C27.4021 34.3398 27.5293 34.3925 27.6231 34.4863C27.7169 34.5801 27.7695 34.7072 27.7695 34.8398V40.9998H33.3595C33.4921 40.9998 33.6193 41.0525 33.7131 41.1463C33.8069 41.2401 33.8595 41.3672 33.8595 41.4998C33.8595 41.6325 33.8069 41.7596 33.7131 41.8534C33.6193 41.9472 33.4921 41.9998 33.3595 41.9998Z" fill="white"/>
<path d="M27.2698 35.3398C26.8475 35.3398 26.4347 35.2146 26.0836 34.98C25.7325 34.7454 25.4589 34.412 25.2973 34.0219C25.1357 33.6317 25.0934 33.2025 25.1758 32.7883C25.2582 32.3742 25.4615 31.9937 25.7601 31.6952C26.0587 31.3966 26.4391 31.1932 26.8532 31.1108C27.2674 31.0285 27.6967 31.0707 28.0868 31.2323C28.4769 31.3939 28.8104 31.6676 29.045 32.0187C29.2796 32.3698 29.4048 32.7826 29.4048 33.2048C29.4034 33.7707 29.1781 34.3129 28.778 34.713C28.3779 35.1131 27.8356 35.3385 27.2698 35.3398ZM27.2698 32.0698C27.0453 32.0698 26.8258 32.1364 26.6392 32.2611C26.4525 32.3858 26.3071 32.5631 26.2212 32.7705C26.1353 32.9779 26.1128 33.2061 26.1566 33.4263C26.2004 33.6464 26.3085 33.8487 26.4672 34.0074C26.6259 34.1661 26.8282 34.2742 27.0483 34.318C27.2685 34.3618 27.4967 34.3393 27.7041 34.2534C27.9115 34.1675 28.0888 34.022 28.2135 33.8354C28.3382 33.6487 28.4048 33.4293 28.4048 33.2048C28.4048 32.9038 28.2852 32.6151 28.0723 32.4023C27.8595 32.1894 27.5708 32.0698 27.2698 32.0698Z" fill="white"/>
<path d="M48 63.7301C47.8674 63.7301 47.7402 63.6775 47.6464 63.5837C47.5527 63.4899 47.5 63.3627 47.5 63.2301V54.6401C47.5 54.5075 47.5527 54.3804 47.6464 54.2866C47.7402 54.1928 47.8674 54.1401 48 54.1401C48.1326 54.1401 48.2598 54.1928 48.3536 54.2866C48.4473 54.3804 48.5 54.5075 48.5 54.6401V63.2301C48.5 63.3627 48.4473 63.4899 48.3536 63.5837C48.2598 63.6775 48.1326 63.7301 48 63.7301Z" fill="white"/>
<path d="M48.0002 67C47.578 67 47.1652 66.8748 46.8141 66.6402C46.463 66.4056 46.1893 66.0721 46.0278 65.682C45.8662 65.2919 45.8239 64.8626 45.9063 64.4485C45.9886 64.0343 46.192 63.6539 46.4906 63.3553C46.7891 63.0567 47.1696 62.8534 47.5837 62.771C47.9979 62.6886 48.4271 62.7309 48.8173 62.8925C49.2074 63.0541 49.5408 63.3277 49.7754 63.6788C50.01 64.0299 50.1352 64.4427 50.1352 64.865C50.1339 65.4308 49.9086 65.9731 49.5085 66.3732C49.1083 66.7733 48.5661 66.9987 48.0002 67ZM48.0002 63.73C47.7758 63.73 47.5563 63.7966 47.3697 63.9213C47.183 64.046 47.0375 64.2232 46.9516 64.4306C46.8657 64.638 46.8432 64.8662 46.887 65.0864C46.9308 65.3066 47.0389 65.5088 47.1977 65.6675C47.3564 65.8263 47.5586 65.9344 47.7788 65.9782C47.999 66.022 48.2272 65.9995 48.4346 65.9136C48.642 65.8277 48.8192 65.6822 48.944 65.4956C49.0687 65.3089 49.1352 65.0895 49.1352 64.865C49.1352 64.564 49.0157 64.2753 48.8028 64.0624C48.5899 63.8496 48.3013 63.73 48.0002 63.73Z" fill="white"/>
<path d="M41.0355 61.2301H34.3555C34.2229 61.2301 34.0957 61.1775 34.0019 61.0837C33.9081 60.9899 33.8555 60.8627 33.8555 60.7301C33.8555 60.5975 33.9081 60.4704 34.0019 60.3766C34.0957 60.2828 34.2229 60.2301 34.3555 60.2301H40.5355V54.6401C40.5355 54.5075 40.5881 54.3804 40.6819 54.2866C40.7757 54.1928 40.9029 54.1401 41.0355 54.1401C41.1681 54.1401 41.2953 54.1928 41.389 54.2866C41.4828 54.3804 41.5355 54.5075 41.5355 54.6401V60.7301C41.5355 60.8627 41.4828 60.9899 41.389 61.0837C41.2953 61.1775 41.1681 61.2301 41.0355 61.2301Z" fill="white"/>
<path d="M32.72 62.865C32.2977 62.865 31.8849 62.7398 31.5338 62.5052C31.1827 62.2706 30.9091 61.9371 30.7475 61.547C30.5859 61.1569 30.5436 60.7276 30.626 60.3135C30.7084 59.8993 30.9117 59.5189 31.2103 59.2203C31.5089 58.9217 31.8893 58.7184 32.3034 58.636C32.7176 58.5536 33.1469 58.5959 33.537 58.7575C33.9271 58.9191 34.2606 59.1927 34.4951 59.5438C34.7297 59.8949 34.855 60.3077 34.855 60.73C34.855 61.2962 34.63 61.8393 34.2296 62.2396C33.8292 62.64 33.2862 62.865 32.72 62.865ZM32.72 59.595C32.4955 59.595 32.276 59.6615 32.0894 59.7863C31.9027 59.911 31.7573 60.0882 31.6714 60.2956C31.5855 60.503 31.563 60.7312 31.6068 60.9514C31.6506 61.1716 31.7587 61.3738 31.9174 61.5325C32.0761 61.6913 32.2784 61.7994 32.4985 61.8432C32.7187 61.887 32.9469 61.8645 33.1543 61.7786C33.3617 61.6927 33.539 61.5472 33.6637 61.3605C33.7884 61.1739 33.855 60.9545 33.855 60.73C33.855 60.4289 33.7354 60.1403 33.5225 59.9274C33.3097 59.7145 33.021 59.595 32.72 59.595Z" fill="white"/>
</svg>
