<svg width="81" height="81" viewBox="0 0 81 81" fill="none" xmlns="http://www.w3.org/2000/svg">
<circle cx="40.237" cy="40.237" r="40.237" fill="#212121"/>
<g clip-path="url(#clip0_2021_87)">
<path d="M60.2121 56.3032L58.8182 54.9093C58.5758 54.6669 58.2121 54.6669 57.9697 54.9093C57.7273 55.1517 57.7273 55.5154 57.9697 55.7578L58.3334 56.1214H24.697V51.879H26.4546C27.9697 51.879 29.303 50.8487 29.6667 49.3941C29.7879 48.9699 30.1515 48.6669 30.5758 48.6669C32.0909 48.6669 33.4243 47.8184 34.2121 46.6063L36.8182 50.3032C37.4243 51.1517 38.394 51.6366 39.4849 51.576C40.5152 51.5154 41.4849 50.9093 41.9697 50.0002L44.2727 45.879C44.4546 46.1214 44.697 46.3032 44.9394 46.4244C47.3637 47.879 49.7273 44.6669 53.9697 47.576C54.2727 47.7578 54.6364 47.6972 54.8182 47.3941C55 47.0911 54.9394 46.7275 54.6364 46.5457C49.9697 43.3335 47.303 46.4244 45.5455 45.3335C45.2424 45.1517 45.0606 44.9093 44.8788 44.6669L49.9697 35.576C50.9394 33.8184 53.7273 34.4851 53.7273 36.5457V37.3335C53.7273 37.6972 53.9697 37.9396 54.3334 37.9396C54.697 37.9396 54.9394 37.6972 54.9394 37.3335V36.5457C54.9394 33.2729 50.5152 32.1214 48.9394 34.9699L44.5152 42.9093L42.3334 29.2729C41.8485 26.182 37.4849 26.1214 36.8182 29.1517L33.7273 43.879L31.7273 41.0911C31.6061 40.9093 31.4243 40.8487 31.2424 40.8487H24.697V22.8487L25.0606 23.2123C25.303 23.4548 25.6667 23.4548 25.9091 23.2123C26.1515 22.9699 26.1515 22.6063 25.9091 22.3638L24.5152 20.9699C24.2727 20.7275 23.9091 20.7275 23.6667 20.9699L22.2727 22.3638C22.0303 22.6063 22.0303 22.9699 22.2727 23.2123C22.5152 23.4548 22.8788 23.4548 23.1212 23.2123L23.4849 22.8487V24.9093H22.2121C21.8485 24.9093 21.6061 25.1517 21.6061 25.5154C21.6061 25.879 21.8485 26.1214 22.2121 26.1214H23.4849V28.1214H22.2121C21.8485 28.1214 21.6061 28.3638 21.6061 28.7275C21.6061 29.0911 21.8485 29.3335 22.2121 29.3335H23.4849V31.3335H22.2121C21.8485 31.3335 21.6061 31.576 21.6061 31.9396C21.6061 32.3032 21.8485 32.5457 22.2121 32.5457H23.4849V34.5457H22.2121C21.8485 34.5457 21.6061 34.7881 21.6061 35.1517C21.6061 35.5154 21.8485 35.7578 22.2121 35.7578H23.4849V37.7578H22.2121C21.8485 37.7578 21.6061 38.0002 21.6061 38.3638C21.6061 38.7275 21.8485 38.9699 22.2121 38.9699H23.4849V40.9699H22.2121C21.8485 40.9699 21.6061 41.2123 21.6061 41.576C21.6061 41.9396 21.8485 42.182 22.2121 42.182H23.4849V44.2426H22.2121C21.8485 44.2426 21.6061 44.4851 21.6061 44.8487C21.6061 45.2123 21.8485 45.4548 22.2121 45.4548H23.4849V47.4548H22.2121C21.8485 47.4548 21.6061 47.6972 21.6061 48.0608C21.6061 48.4244 21.8485 48.6669 22.2121 48.6669H23.4849V50.6669H22.2121C21.8485 50.6669 21.6061 50.9093 21.6061 51.2729C21.6061 51.6366 21.8485 51.879 22.2121 51.879H23.4849V53.879H22.2121C21.8485 53.879 21.6061 54.1214 21.6061 54.4851C21.6061 54.8487 21.8485 55.0911 22.2121 55.0911H23.4849V56.7275C23.4849 57.0911 23.7273 57.3335 24.0909 57.3335H25.9091V58.6063C25.9091 58.9699 26.1515 59.2123 26.5152 59.2123C26.8788 59.2123 27.1212 58.9699 27.1212 58.6063V57.3335H29.1212V58.6063C29.1212 58.9699 29.3637 59.2123 29.7273 59.2123C30.0909 59.2123 30.3334 58.9699 30.3334 58.6063V57.3335H32.3334V58.6063C32.3334 58.9699 32.5758 59.2123 32.9394 59.2123C33.3031 59.2123 33.5455 58.9699 33.5455 58.6063V57.3335H35.5455V58.6063C35.5455 58.9699 35.7879 59.2123 36.1515 59.2123C36.5152 59.2123 36.7576 58.9699 36.7576 58.6063V57.3335H38.7576V58.6063C38.7576 58.9699 39 59.2123 39.3637 59.2123C39.7273 59.2123 39.9697 58.9699 39.9697 58.6063V57.3335H41.9697V58.6063C41.9697 58.9699 42.2121 59.2123 42.5758 59.2123C42.9394 59.2123 43.1818 58.9699 43.1818 58.6063V57.3335H45.2424V58.6063C45.2424 58.9699 45.4849 59.2123 45.8485 59.2123C46.2121 59.2123 46.4546 58.9699 46.4546 58.6063V57.3335H48.4546V58.6063C48.4546 58.9699 48.697 59.2123 49.0606 59.2123C49.4243 59.2123 49.6667 58.9699 49.6667 58.6063V57.3335H51.6667V58.6063C51.6667 58.9699 51.9091 59.2123 52.2727 59.2123C52.6364 59.2123 52.8788 58.9699 52.8788 58.6063V57.3335H54.8788V58.6063C54.8788 58.9699 55.1212 59.2123 55.4849 59.2123C55.8485 59.2123 56.0909 58.9699 56.0909 58.6063V57.3335H58.3334L57.9697 57.6972C57.7273 57.9396 57.7273 58.3032 57.9697 58.5457C58.2121 58.7881 58.5758 58.7881 58.8182 58.5457L60.2121 57.1517C60.4546 56.9093 60.4546 56.5457 60.2121 56.3032ZM37.9697 29.3941C38.3334 27.6972 40.8182 27.7578 41.0606 29.4548L43.4243 44.182C43.4243 44.3032 43.4849 44.4244 43.4849 44.5457L40.8182 49.3335C40.1515 50.4851 38.5152 50.6063 37.7273 49.5154L34.6364 45.2123L37.9697 29.3941ZM30.9394 42.0002L33.3637 45.4548C32.9394 46.6063 31.8485 47.4548 30.5758 47.4548C29.6061 47.4548 28.697 48.1214 28.5152 49.0911C28.2727 50.0002 27.4243 50.6669 26.4546 50.6669H24.697V42.0002H30.9394Z" fill="white"/>
</g>
<defs>
<clipPath id="clip0_2021_87">
<rect width="40" height="40" fill="white" transform="translate(21 20)"/>
</clipPath>
</defs>
</svg>
