<svg width="89" height="88" viewBox="0 0 89 88" fill="none" xmlns="http://www.w3.org/2000/svg">
<circle cx="44.8506" cy="44" r="44" fill="white"/>
<g clip-path="url(#clip0_6_7)">
<path d="M66.3193 52.7493H64.4358C64.2788 52.248 64.0778 51.7627 63.835 51.2982L65.1667 49.9667C65.2945 49.839 65.3661 49.6657 65.3661 49.4851C65.3661 49.3044 65.2944 49.1313 65.1667 49.0035L62.374 46.211C62.1081 45.9451 61.677 45.9451 61.411 46.211L60.0795 47.5426C59.6152 47.2998 59.1297 47.0989 58.6284 46.9419V45.0582C58.6284 44.682 58.3235 44.3772 57.9474 44.3772H53.9984C53.6223 44.3772 53.3174 44.682 53.3174 45.0582V46.9419C52.8159 47.099 52.3305 47.2999 51.8663 47.5427L50.5348 46.2111C50.4072 46.0833 50.2339 46.0116 50.0532 46.0116C49.8725 46.0116 49.6995 46.0834 49.5717 46.211L46.7791 49.0035C46.6513 49.1313 46.5797 49.3043 46.5797 49.4851C46.5797 49.6656 46.6514 49.8389 46.779 49.9667L48.1106 51.2981C47.8678 51.7624 47.6669 52.2478 47.5099 52.7494H45.6263C45.2501 52.7494 44.9453 53.0542 44.9453 53.4304V57.3794C44.9453 57.7555 45.2501 58.0603 45.6263 58.0603H47.5098C47.6668 58.5616 47.8676 59.047 48.1106 59.5116L46.7791 60.8429C46.5132 61.109 46.5132 61.54 46.7791 61.806L49.5717 64.5986C49.6995 64.7264 49.8725 64.7981 50.0533 64.7981C50.234 64.7981 50.4071 64.7263 50.5349 64.5986L51.8663 63.267C52.3309 63.5101 52.8162 63.711 53.3176 63.8679V65.7515C53.3176 66.1276 53.6224 66.4325 53.9986 66.4325H57.9476C58.3237 66.4325 58.6285 66.1276 58.6285 65.7515V63.8679C59.1297 63.7109 59.6151 63.51 60.0797 63.2669L61.4112 64.5986C61.5388 64.7264 61.7121 64.7981 61.8928 64.7981C62.0735 64.7981 62.2465 64.7263 62.3744 64.5987L65.167 61.8061C65.2946 61.6783 65.3664 61.5052 65.3664 61.3245C65.3664 61.1439 65.2946 60.9707 65.1669 60.8429L63.8352 59.5113C64.0782 59.0467 64.2791 58.5613 64.436 58.0603H66.3195C66.6957 58.0603 67.0005 57.7554 67.0005 57.3793V53.4303C67.0002 53.0541 66.6954 52.7493 66.3193 52.7493ZM65.6383 56.6983H63.9197C63.6067 56.6983 63.334 56.9117 63.2589 57.2154C63.0785 57.943 62.7914 58.6364 62.4055 59.2764C62.2438 59.5445 62.2859 59.8882 62.5072 60.1096L63.7222 61.3245L61.8927 63.1539L60.6778 61.9388C60.4564 61.7174 60.1126 61.6754 59.8445 61.8372C59.2046 62.2232 58.5111 62.5104 57.7837 62.6906C57.4799 62.7658 57.2665 63.0386 57.2665 63.3516V65.0703H54.6795V63.3516C54.6795 63.0386 54.466 62.7658 54.1623 62.6906C53.4343 62.5104 52.741 62.2231 52.1017 61.8373C51.8334 61.6754 51.4896 61.7173 51.2682 61.9388L50.0533 63.1539L48.2238 61.3245L49.4388 60.1096C49.6602 59.8882 49.702 59.5444 49.5403 59.2763C49.1546 58.6368 48.8675 57.9434 48.687 57.2154C48.6118 56.9116 48.3391 56.6983 48.0262 56.6983H46.3074V54.1113H48.026C48.339 54.1113 48.6117 53.8979 48.6869 53.5943C48.8675 52.8656 49.1546 52.1722 49.54 51.5334C49.7019 51.2653 49.66 50.9214 49.4386 50.7L48.2237 49.4851L50.0531 47.6557L51.268 48.8708C51.4894 49.0922 51.8332 49.1343 52.1014 48.9723C52.7403 48.5868 53.4337 48.2996 54.1624 48.1189C54.4661 48.0435 54.6793 47.7709 54.6793 47.4581V45.7393H57.2664V47.4581C57.2664 47.771 57.4797 48.0436 57.7833 48.1189C58.5118 48.2997 59.2053 48.5868 59.8445 48.9723C60.1125 49.134 60.4563 49.0917 60.6777 48.8707L61.8926 47.6557L63.7221 49.4851L62.5072 50.6999C62.2858 50.9213 62.2438 51.2651 62.4056 51.5332C62.7912 52.1725 63.0783 52.866 63.2589 53.5942C63.3341 53.8979 63.6068 54.1112 63.9197 54.1112H65.6383V56.6983Z" fill="#212121"/>
<path d="M55.8782 49.5283C52.638 49.5283 50.002 52.1645 50.002 55.405C50.002 58.6453 52.6379 61.2815 55.8782 61.2815C59.1185 61.2815 61.7548 58.6453 61.7548 55.405C61.7548 52.1646 59.1185 49.5283 55.8782 49.5283ZM55.8782 59.9195C53.389 59.9195 51.3639 57.8943 51.3639 55.4049C51.3639 52.9155 53.389 50.8902 55.8782 50.8902C58.3675 50.8902 60.3928 52.9155 60.3928 55.4049C60.3928 57.8943 58.3675 59.9195 55.8782 59.9195Z" fill="#212121"/>
<path d="M59.4759 38.0497H55.848C55.5387 36.9698 55.1091 35.932 54.5658 34.9525L57.1309 32.3878C57.2587 32.2602 57.3304 32.087 57.3304 31.9062C57.3304 31.7257 57.2586 31.5525 57.131 31.4246L52.3003 26.594C52.0342 26.3281 51.6031 26.3281 51.3373 26.594L48.7721 29.159C47.7933 28.6159 46.7553 28.1863 45.6749 27.8768V24.2486C45.6749 23.8724 45.37 23.5676 44.9939 23.5676H38.1628C37.7867 23.5676 37.4818 23.8724 37.4818 24.2486V27.8768C36.401 28.1864 35.3629 28.6163 34.3845 29.1592L31.8197 26.5943C31.692 26.4665 31.5188 26.3948 31.3381 26.3948C31.1574 26.3948 30.9843 26.4666 30.8565 26.5943L26.0263 31.4249C25.7603 31.6909 25.7603 32.1219 26.0263 32.3879L28.5911 34.9526C28.0481 35.9315 27.6183 36.9695 27.3089 38.0498H23.681C23.3048 38.0498 23 38.3547 23 38.7308V45.562C23 45.9381 23.3048 46.2429 23.681 46.2429H27.3088C27.6183 47.323 28.0481 48.361 28.5911 49.34L26.0263 51.9051C25.7603 52.1711 25.7603 52.6021 26.0263 52.8681L30.8565 57.6987C30.9843 57.8265 31.1574 57.8982 31.3381 57.8982C31.5188 57.8982 31.6919 57.8264 31.8197 57.6987L34.3844 55.1335C35.3637 55.677 36.4019 56.1069 37.4818 56.4163V60.0444C37.4818 60.4206 37.7867 60.7254 38.1628 60.7254H43.5498C43.773 60.7254 43.9821 60.616 44.1093 60.4326C44.2364 60.2492 44.2657 60.0151 44.1876 59.8061C43.662 58.3993 43.3955 56.9184 43.3955 55.405C43.3955 53.9335 43.6476 52.4916 44.1449 51.1194C44.2301 50.884 44.1794 50.6208 44.0127 50.434C43.8461 50.2472 43.5905 50.1667 43.3468 50.2249C42.7115 50.3763 42.0618 50.4531 41.4157 50.4531C36.8359 50.4531 33.1098 46.7269 33.1098 42.147C33.1098 37.5668 36.8359 33.8404 41.4157 33.8404C45.9958 33.8404 49.722 37.5668 49.722 42.147C49.722 42.5302 49.6937 42.9241 49.6381 43.318C49.6032 43.5658 49.7071 43.813 49.9086 43.9615C50.1104 44.11 50.3769 44.1357 50.6035 44.0288C52.2889 43.2318 54.0954 42.8277 55.9726 42.8277C57.0982 42.8277 58.2165 42.9773 59.2964 43.2724C59.5014 43.3285 59.7204 43.2856 59.8891 43.1568C60.0578 43.028 60.1569 42.8278 60.1569 42.6155V38.7309C60.1569 38.3546 59.8521 38.0497 59.4759 38.0497ZM58.7951 41.7526C57.869 41.5619 56.923 41.4656 55.9727 41.4656C54.2809 41.4656 52.6407 41.7621 51.0818 42.348C51.0833 42.2807 51.0839 42.2135 51.0839 42.1467C51.0839 36.8155 46.7468 32.4783 41.4157 32.4783C36.0848 32.4783 31.7478 36.8156 31.7478 42.1467C31.7478 47.4778 36.0848 51.8148 41.4157 51.8148C41.783 51.8148 42.1513 51.7935 42.5178 51.7512C42.1962 52.9372 42.0337 54.1616 42.0337 55.4047C42.0337 56.7553 42.2253 58.0827 42.6045 59.3633H38.8439V55.8934C38.8439 55.5804 38.6305 55.3077 38.3268 55.2325C37.0188 54.9083 35.7732 54.3924 34.6248 53.6991C34.3566 53.5372 34.0127 53.5792 33.7913 53.8006L31.3382 56.2542L27.4709 52.3867L29.924 49.9333C30.1454 49.712 30.1872 49.3681 30.0255 49.1001C29.3327 47.9517 28.817 46.7063 28.4926 45.3981C28.4173 45.0943 28.1446 44.881 27.8317 44.881H24.3619V39.4118H27.8317C28.1446 39.4118 28.4172 39.1984 28.4925 38.8948C28.8171 37.5861 29.3328 36.3406 30.0254 35.1927C30.1871 34.9246 30.1452 34.5808 29.9239 34.3593L27.4708 31.9064L31.3381 28.0389L33.7912 30.4922C34.0125 30.7136 34.3563 30.7555 34.6247 30.5937C35.7719 29.9012 37.0175 29.3854 38.3268 29.0605C38.6306 28.9851 38.8438 28.7124 38.8438 28.3996V24.9297H44.3128V28.3997C44.3128 28.7126 44.5261 28.9853 44.8298 29.0606C46.1386 29.3852 47.3842 29.901 48.532 30.5934C48.8002 30.7552 49.144 30.713 49.3653 30.492L51.8186 28.0387L55.6863 31.9063L53.233 34.3593C53.0116 34.5807 52.9697 34.9245 53.1314 35.1927C53.8243 36.3413 54.3401 37.587 54.6642 38.8947C54.7395 39.1985 55.0121 39.4118 55.325 39.4118H58.795V41.7526H58.7951Z" fill="#212121"/>
<path d="M47.578 38.7997C47.3991 38.4689 46.9859 38.3458 46.6551 38.5247C46.3242 38.7037 46.2011 39.1169 46.3802 39.4477C46.8238 40.2679 47.0583 41.1977 47.0583 42.1367C47.0583 45.2577 44.5192 47.7969 41.3982 47.7969C38.2772 47.7969 35.738 45.2577 35.738 42.1367C35.738 39.0157 38.2772 36.4766 41.3982 36.4766C42.6798 36.4766 43.8883 36.8942 44.8931 37.6842C45.1889 37.9166 45.617 37.8653 45.8493 37.5697C46.0818 37.274 46.0305 36.8459 45.7349 36.6135C44.4876 35.633 42.988 35.1147 41.3981 35.1147C37.526 35.1147 34.376 38.2648 34.376 42.1368C34.376 46.0089 37.526 49.1589 41.3981 49.1589C45.2701 49.1589 48.4201 46.0089 48.4201 42.1368C48.4201 40.9721 48.129 39.8182 47.578 38.7997Z" fill="#212121"/>
<path d="M55.8781 52.1575C54.0876 52.1575 52.6309 53.6142 52.6309 55.4047C52.6309 57.1952 54.0876 58.6519 55.8781 58.6519C57.6686 58.6519 59.1253 57.1952 59.1253 55.4047C59.1253 53.6142 57.6686 52.1575 55.8781 52.1575ZM55.8781 57.2899C54.8386 57.2899 53.9928 56.4442 53.9928 55.4046C53.9928 54.365 54.8385 53.5193 55.8781 53.5193C56.9177 53.5193 57.7634 54.3649 57.7634 55.4046C57.7634 56.4442 56.9176 57.2899 55.8781 57.2899Z" fill="#212121"/>
</g>
<defs>
<clipPath id="clip0_6_7">
<rect width="44" height="44" fill="white" transform="translate(23 23)"/>
</clipPath>
</defs>
</svg>
