<svg width="81" height="81" viewBox="0 0 81 81" fill="none" xmlns="http://www.w3.org/2000/svg">
<circle cx="40.237" cy="40.237" r="40.237" fill="#212121"/>
<path d="M45.8169 56.8051H48.9279C50.1184 56.8051 51.173 56.0915 51.6169 54.9873L53.0127 51.509" stroke="white" stroke-width="1.26863" stroke-miterlimit="10" stroke-linecap="round" stroke-linejoin="round"/>
<path d="M45.8169 59.4157H48.9279C51.1904 59.4157 53.1963 58.0599 54.0395 55.96L55.8557 51.4358" stroke="white" stroke-width="1.26863" stroke-miterlimit="10" stroke-linecap="round" stroke-linejoin="round"/>
<path d="M51.6826 51.4232L54.7852 51.6238C55.8016 51.6895 56.7393 51.0776 57.0876 50.1199L57.7185 48.3862" stroke="white" stroke-width="1.26863" stroke-miterlimit="10" stroke-linecap="round" stroke-linejoin="round"/>
<path d="M55.6963 40.3955L58.2017 42.2372C59.0228 42.8405 59.3469 43.9121 58.9994 44.8688L58.754 45.543" stroke="white" stroke-width="1.26863" stroke-miterlimit="10" stroke-linecap="round" stroke-linejoin="round"/>
<path d="M54.3719 37.9707C55.457 38.3656 56.0164 39.5653 55.6215 40.6504L51.7888 51.1806C51.3939 52.2656 50.1942 52.8251 49.1091 52.4302C48.0241 52.0353 47.4647 50.8355 47.8595 49.7505L51.6922 39.2203C52.0871 38.1352 53.2869 37.5757 54.3719 37.9707Z" stroke="white" stroke-width="1.26863" stroke-miterlimit="10" stroke-linecap="round" stroke-linejoin="round"/>
<path d="M43.2915 60.9524C44.861 60.9524 46.1333 59.6801 46.1333 58.1106C46.1333 56.5411 44.861 55.2688 43.2915 55.2688C41.722 55.2688 40.4497 56.5411 40.4497 58.1106C40.4497 59.6801 41.722 60.9524 43.2915 60.9524Z" stroke="white" stroke-width="1.26863" stroke-miterlimit="10" stroke-linecap="round" stroke-linejoin="round"/>
<path d="M28.0357 52.3636H30.2076L35.8866 57.2225C36.6471 57.8733 37.8208 57.3331 37.8208 56.3323V52.3637H41.5777C43.7962 52.3637 45.5938 50.5652 45.5938 48.3475V37.4526C45.5938 35.2341 43.7962 33.4355 41.5777 33.4355H23.6099C21.3922 33.4355 19.5938 35.234 19.5938 37.4526V48.3474C19.5938 50.565 21.3922 52.3635 23.6099 52.3635H25.0109" stroke="white" stroke-width="1.26863" stroke-miterlimit="10" stroke-linecap="round" stroke-linejoin="round"/>
<path d="M23.7739 40.5942H41.414" stroke="white" stroke-width="1.26863" stroke-miterlimit="10" stroke-linecap="round" stroke-linejoin="round"/>
<path d="M23.7739 43.6902H41.414" stroke="white" stroke-width="1.26863" stroke-miterlimit="10" stroke-linecap="round" stroke-linejoin="round"/>
<path d="M23.7739 46.7859H38.5284" stroke="white" stroke-width="1.26863" stroke-miterlimit="10" stroke-linecap="round" stroke-linejoin="round"/>
<path d="M22.4731 33.5991C23.2786 30.1879 25.0157 27.0567 27.5566 24.5158C31.1667 20.9067 35.9659 18.9189 41.0701 18.9189C46.1743 18.9189 50.9735 20.9067 54.5836 24.5158C58.1927 28.1258 60.1804 32.925 60.1804 38.0293C60.1804 40.17 59.8217 42.2875 59.1278 44.2908" stroke="white" stroke-width="1.26863" stroke-miterlimit="10" stroke-linecap="round" stroke-linejoin="round"/>
<path d="M25.2026 33.4358C27.1973 26.5555 33.5565 21.5117 41.0703 21.5117C50.1778 21.5117 57.5879 28.9218 57.5879 38.0293C57.5879 39.2056 57.4626 40.374 57.2171 41.514" stroke="white" stroke-width="1.26863" stroke-miterlimit="10" stroke-linecap="round" stroke-linejoin="round"/>
</svg>
