<svg width="88" height="88" viewBox="0 0 88 88" fill="none" xmlns="http://www.w3.org/2000/svg">
<circle cx="44" cy="44" r="44" fill="white"/>
<path d="M38.351 52H23C22.447 52 22 51.552 22 51C22 50.448 22.447 50 23 50H38.351C38.904 50 39.351 50.448 39.351 51C39.351 51.552 38.903 52 38.351 52Z" fill="#212121"/>
<path d="M38.351 40H23C22.447 40 22 39.552 22 39C22 38.448 22.447 38 23 38H38.351C38.904 38 39.351 38.448 39.351 39C39.351 39.552 38.903 40 38.351 40Z" fill="#212121"/>
<path d="M37 46H17C16.447 46 16 45.552 16 45C16 44.448 16.447 44 17 44H37C37.553 44 38 44.448 38 45C38 45.552 37.553 46 37 46Z" fill="#212121"/>
<path d="M47 48.9019C45.013 48.9019 43 47.5619 43 44.9999C43 42.4379 45.013 41.0979 47 41.0979C48.987 41.0979 51 42.4379 51 44.9999C51 47.5619 48.987 48.9019 47 48.9019ZM47 43.0979C46.077 43.0979 45 43.5959 45 44.9999C45 46.4039 46.077 46.9019 47 46.9019C47.923 46.9019 49 46.4039 49 44.9999C49 43.5959 47.923 43.0979 47 43.0979Z" fill="#212121"/>
<path d="M49.1204 43.8789C48.8644 43.8789 48.6084 43.7809 48.4134 43.5859C48.0224 43.1949 48.0224 42.5629 48.4134 42.1719L54.0704 36.5149C54.4614 36.1239 55.0934 36.1239 55.4844 36.5149C55.8754 36.9059 55.8754 37.5379 55.4844 37.9289L49.8274 43.5859C49.6324 43.7809 49.3764 43.8789 49.1204 43.8789Z" fill="#212121"/>
<path d="M43.4651 49.5361C43.2091 49.5361 42.9531 49.4381 42.7581 49.2431C42.3671 48.8531 42.3671 48.2201 42.7581 47.8291L44.1721 46.4141C44.5631 46.0231 45.1951 46.0231 45.5861 46.4141C45.9771 46.8041 45.9771 47.4371 45.5861 47.8281L44.1721 49.2431C43.9771 49.4381 43.7211 49.5361 43.4651 49.5361Z" fill="#212121"/>
<path d="M47 64C46.447 64 46 63.552 46 63V60C46 59.448 46.447 59 47 59C47.553 59 48 59.448 48 60V63C48 63.552 47.553 64 47 64Z" fill="#212121"/>
<path d="M59.7277 58.728C59.4717 58.728 59.2157 58.63 59.0207 58.435L56.8997 56.313C56.5087 55.922 56.5087 55.289 56.8997 54.899C57.2907 54.508 57.9227 54.508 58.3137 54.899L60.4347 57.021C60.8257 57.412 60.8257 58.045 60.4347 58.435C60.2387 58.63 59.9827 58.728 59.7277 58.728Z" fill="#212121"/>
<path d="M57.6057 35.394C57.3497 35.394 57.0937 35.296 56.8987 35.101C56.5077 34.711 56.5077 34.078 56.8987 33.687L59.0197 31.565C59.4107 31.174 60.0427 31.174 60.4337 31.565C60.8247 31.955 60.8247 32.588 60.4337 32.979L58.3127 35.101C58.1177 35.296 57.8617 35.394 57.6057 35.394Z" fill="#212121"/>
<path d="M47 31C46.447 31 46 30.552 46 30V27C46 26.448 46.447 26 47 26C47.553 26 48 26.448 48 27V30C48 30.552 47.553 31 47 31Z" fill="#212121"/>
<path d="M65 46H62C61.447 46 61 45.552 61 45C61 44.448 61.447 44 62 44H65C65.553 44 66 44.448 66 45C66 45.552 65.553 46 65 46Z" fill="#212121"/>
<path d="M39.789 34H29C28.447 34 28 33.552 28 33C28 32.448 28.447 32 29 32H39.789C40.342 32 40.789 32.448 40.789 33C40.789 33.552 40.342 34 39.789 34Z" fill="#212121"/>
<path d="M39.789 58H29C28.447 58 28 57.552 28 57C28 56.448 28.447 56 29 56H39.789C40.342 56 40.789 56.448 40.789 57C40.789 57.552 40.342 58 39.789 58Z" fill="#212121"/>
<path d="M46.9374 63.9811C44.0064 63.9811 41.0454 63.3061 38.2954 61.8891C37.8044 61.6361 37.6114 61.0331 37.8644 60.5421C38.1174 60.0511 38.7214 59.8581 39.2114 60.1111C47.0554 64.1531 56.8264 61.4451 61.4564 53.9461C66.0994 46.4251 64.1564 36.4661 57.0334 31.2731C51.8744 27.5131 44.8784 26.9691 39.2114 29.8881C38.7214 30.1411 38.1174 29.9491 37.8644 29.4571C37.6114 28.9661 37.8034 28.3631 38.2954 28.1101C44.6284 24.8461 52.4444 25.4531 58.2114 29.6561C66.1734 35.4601 68.3464 46.5911 63.1574 54.9961C59.6064 60.7501 53.3474 63.9811 46.9374 63.9811Z" fill="#212121"/>
</svg>
