<svg width="81" height="81" viewBox="0 0 81 81" fill="none" xmlns="http://www.w3.org/2000/svg">
<circle cx="40.237" cy="40.237" r="40.237" fill="#212121"/>
<g clip-path="url(#clip0_2025_90)">
<path d="M27.7292 58.3586C27.641 58.3583 27.5539 58.3399 27.4732 58.3045C27.3924 58.2691 27.3198 58.2175 27.2599 58.1528C27.1435 58.029 27.0809 57.8642 27.0857 57.6943C27.0905 57.5245 27.1624 57.3634 27.2856 57.2464C30.5985 54.1489 34.9645 52.4258 39.4999 52.4258C44.0353 52.4258 48.4013 54.1489 51.7142 57.2464C51.8255 57.3653 51.8875 57.5221 51.8876 57.6849C51.8878 57.8478 51.8262 58.0047 51.7152 58.1238C51.6042 58.243 51.4521 58.3156 51.2896 58.327C51.1271 58.3383 50.9664 58.2876 50.8399 58.185C47.764 55.3145 43.7135 53.7181 39.5063 53.7181C35.2991 53.7181 31.2486 55.3145 28.1728 58.185C28.0526 58.2975 27.8938 58.3596 27.7292 58.3586Z" fill="white"/>
<path d="M39.4996 63.0001C33.8103 63.0001 29.2139 54.9708 29.2139 45.1094C29.2139 44.9389 29.2816 44.7754 29.4022 44.6548C29.5227 44.5343 29.6862 44.4666 29.8567 44.4666C30.0272 44.4666 30.1907 44.5343 30.3113 44.6548C30.4319 44.7754 30.4996 44.9389 30.4996 45.1094C30.4996 54.2637 34.5239 61.7144 39.4996 61.7144C44.4753 61.7144 48.4996 54.2637 48.4996 45.1094C48.4996 44.9389 48.5673 44.7754 48.6879 44.6548C48.8084 44.5343 48.9719 44.4666 49.1424 44.4666C49.3129 44.4666 49.4764 44.5343 49.597 44.6548C49.7176 44.7754 49.7853 44.9389 49.7853 45.1094C49.7853 54.9708 45.1889 63.0001 39.4996 63.0001Z" fill="white"/>
<path d="M39.4998 63.0001C39.3293 63.0001 39.1658 62.9324 39.0452 62.8118C38.9247 62.6913 38.8569 62.5278 38.8569 62.3573V45.1094C38.8569 44.9389 38.9247 44.7754 39.0452 44.6548C39.1658 44.5343 39.3293 44.4666 39.4998 44.4666C39.6703 44.4666 39.8338 44.5343 39.9544 44.6548C40.0749 44.7754 40.1426 44.9389 40.1426 45.1094V62.3573C40.1426 62.5278 40.0749 62.6913 39.9544 62.8118C39.8338 62.9324 39.6703 63.0001 39.4998 63.0001Z" fill="white"/>
<path d="M39.5001 63.0001C34.7567 62.995 30.2091 61.1085 26.8551 57.7544C23.501 54.4004 21.6145 49.8528 21.6094 45.1094C21.6094 44.9389 21.6771 44.7754 21.7977 44.6548C21.9182 44.5343 22.0817 44.4666 22.2522 44.4666H56.7479C56.9184 44.4666 57.082 44.5343 57.2025 44.6548C57.3231 44.7754 57.3908 44.9389 57.3908 45.1094C57.3857 49.8528 55.4991 54.4004 52.1451 57.7544C48.791 61.1085 44.2434 62.995 39.5001 63.0001ZM22.9079 45.7523C23.0768 50.0398 24.8987 54.0954 27.9919 57.0692C31.085 60.043 35.2093 61.704 39.5001 61.704C43.7909 61.704 47.9151 60.043 51.0083 57.0692C54.1015 54.0954 55.9234 50.0398 56.0922 45.7523H22.9079Z" fill="white"/>
<path d="M30.4352 42.7308H26.803C26.6325 42.7308 26.469 42.6631 26.3484 42.5425C26.2279 42.422 26.1602 42.2585 26.1602 42.088V38.0701C26.1602 37.8996 26.2279 37.7361 26.3484 37.6155C26.469 37.495 26.6325 37.4272 26.803 37.4272H30.4352C30.6057 37.4272 30.7692 37.495 30.8897 37.6155C31.0103 37.7361 31.078 37.8996 31.078 38.0701V42.088C31.078 42.2585 31.0103 42.422 30.8897 42.5425C30.7692 42.6631 30.6057 42.7308 30.4352 42.7308ZM27.4459 41.4451H29.7923V38.713H27.4459V41.4451Z" fill="white"/>
<path d="M37.687 42.7306H34.0613C33.8908 42.7306 33.7273 42.6628 33.6067 42.5423C33.4862 42.4217 33.4185 42.2582 33.4185 42.0877V33.3191C33.4185 33.1486 33.4862 32.9851 33.6067 32.8646C33.7273 32.744 33.8908 32.6763 34.0613 32.6763H37.687C37.8575 32.6763 38.021 32.744 38.1416 32.8646C38.2622 32.9851 38.3299 33.1486 38.3299 33.3191V42.0877C38.3299 42.2582 38.2622 42.4217 38.1416 42.5423C38.021 42.6628 37.8575 42.7306 37.687 42.7306ZM34.7042 41.4448H37.0442V33.962H34.7042V41.4448Z" fill="white"/>
<path d="M44.9385 42.7308H41.3128C41.1423 42.7308 40.9788 42.6631 40.8582 42.5425C40.7377 42.422 40.6699 42.2585 40.6699 42.088V29.0894C40.6699 28.9189 40.7377 28.7554 40.8582 28.6348C40.9788 28.5143 41.1423 28.4465 41.3128 28.4465H44.9385C45.109 28.4465 45.2725 28.5143 45.3931 28.6348C45.5136 28.7554 45.5813 28.9189 45.5813 29.0894V42.088C45.5813 42.2585 45.5136 42.422 45.3931 42.5425C45.2725 42.6631 45.109 42.7308 44.9385 42.7308ZM41.9556 41.4451H44.2956V29.7322H41.9556V41.4451Z" fill="white"/>
<path d="M52.1964 42.7308H48.5642C48.3937 42.7308 48.2302 42.6631 48.1097 42.5425C47.9891 42.422 47.9214 42.2585 47.9214 42.088V23.4451C47.9214 23.2746 47.9891 23.1111 48.1097 22.9905C48.2302 22.87 48.3937 22.8022 48.5642 22.8022H52.1964C52.3669 22.8022 52.5304 22.87 52.651 22.9905C52.7715 23.1111 52.8392 23.2746 52.8392 23.4451V42.088C52.8392 42.2585 52.7715 42.422 52.651 42.5425C52.5304 42.6631 52.3669 42.7308 52.1964 42.7308ZM49.2071 41.4451H51.5535V24.088H49.2071V41.4451Z" fill="white"/>
<path d="M28.6233 32.7148C28.5241 32.7155 28.426 32.6933 28.3368 32.6498C28.2476 32.6063 28.1696 32.5427 28.1091 32.464C28.0567 32.3971 28.0182 32.3204 27.9957 32.2385C27.9731 32.1566 27.9671 32.071 27.9778 31.9867C27.9886 31.9024 28.016 31.8211 28.0583 31.7474C28.1007 31.6738 28.1573 31.6093 28.2248 31.5576L45.1512 18.5205C45.2868 18.4366 45.4487 18.4061 45.6055 18.4349C45.7623 18.4637 45.9029 18.5497 45.9998 18.6763C46.0967 18.8029 46.1432 18.961 46.1301 19.1199C46.117 19.2788 46.0454 19.4272 45.9291 19.5362L29.0155 32.5798C28.9033 32.6668 28.7654 32.7143 28.6233 32.7148Z" fill="white"/>
<path d="M45.1577 24.0621H45.0998C44.9303 24.0473 44.7735 23.966 44.6638 23.8358C44.5542 23.7057 44.5006 23.5374 44.5148 23.3678L44.8491 19.6199L41.1013 19.2856C41.0168 19.278 40.9347 19.2539 40.8597 19.2146C40.7846 19.1752 40.718 19.1215 40.6636 19.0564C40.6093 18.9914 40.5683 18.9162 40.5431 18.8353C40.5178 18.7544 40.5087 18.6693 40.5163 18.5849C40.5239 18.5005 40.548 18.4184 40.5873 18.3433C40.6267 18.2682 40.6804 18.2016 40.7455 18.1473C40.8105 18.093 40.8857 18.052 40.9666 18.0267C41.0475 18.0014 41.1326 17.9923 41.217 17.9999L45.6013 18.3921C45.7708 18.4068 45.9276 18.4881 46.0373 18.6183C46.1469 18.7484 46.2005 18.9167 46.1863 19.0863L45.8006 23.4706C45.7876 23.6321 45.7142 23.7827 45.595 23.8923C45.4758 24.0019 45.3196 24.0626 45.1577 24.0621Z" fill="white"/>
</g>
<defs>
<clipPath id="clip0_2025_90">
<rect width="45" height="45" fill="white" transform="translate(17 18)"/>
</clipPath>
</defs>
</svg>
