<svg width="66" height="65" viewBox="0 0 66 65" fill="none" xmlns="http://www.w3.org/2000/svg">
<rect width="65.1266" height="65" rx="32.5" fill="#212121"/>
<path d="M51.1978 22.894C50.9762 22.047 50.5412 21.2747 49.9366 20.6546C49.332 20.0345 48.5789 19.5884 47.7531 19.3611C45.4969 18.4671 23.6392 18.0291 17.2978 19.3861C16.4719 19.6135 15.7188 20.0597 15.1141 20.68C14.5095 21.3003 14.0746 22.0729 13.8531 22.92C12.8342 27.503 12.7572 37.4109 13.8785 42.0969C14.1001 42.9439 14.5351 43.7162 15.1397 44.3363C15.7443 44.9565 16.4973 45.4026 17.3232 45.6299C21.7916 46.6849 43.035 46.8329 47.7785 45.6299C48.6043 45.4026 49.3573 44.9565 49.9619 44.3363C50.5665 43.7162 51.0015 42.9439 51.2232 42.0969C52.3093 37.1039 52.3863 27.81 51.1978 22.894Z" stroke="white" stroke-width="2" stroke-linecap="round" stroke-linejoin="round"/>
<path d="M38.9663 32.4949L28.7804 26.5039V38.4858L38.9663 32.4949Z" stroke="white" stroke-width="2" stroke-linecap="round" stroke-linejoin="round"/>
</svg>
