<svg width="42" height="41" viewBox="0 0 42 41" fill="none" xmlns="http://www.w3.org/2000/svg">
<rect width="42" height="41" rx="20.5" fill="#6A40EC"/>
<path d="M35.4222 13.284C35.2507 12.6477 34.914 12.0675 34.4461 11.6017C33.9781 11.1358 33.3953 10.8007 32.7562 10.63C31.01 9.95839 14.0931 9.62936 9.18515 10.6487C8.5459 10.8196 7.96304 11.1548 7.49509 11.6208C7.02713 12.0868 6.69054 12.6671 6.51911 13.3035C5.73054 16.7462 5.67093 24.1891 6.53873 27.7093C6.71028 28.3455 7.04692 28.9257 7.51487 29.3915C7.98282 29.8574 8.56561 30.1925 9.20477 30.3632C12.6632 31.1558 29.1046 31.2669 32.7758 30.3632C33.415 30.1925 33.9978 29.8574 34.4657 29.3915C34.9337 28.9257 35.2703 28.3455 35.4418 27.7093C36.2825 23.9585 36.3421 16.9769 35.4222 13.284Z" stroke="white" stroke-width="2" stroke-linecap="round" stroke-linejoin="round"/>
<path d="M25.9556 20.4961L18.0722 15.9957V24.9965L25.9556 20.4961Z" stroke="white" stroke-width="2" stroke-linecap="round" stroke-linejoin="round"/>
</svg>
